<?xml version="1.0" encoding="UTF-8"?>
<svg xmlns="http://www.w3.org/2000/svg" xmlns:xlink="http://www.w3.org/1999/xlink" viewBox="0 0 3200 2100">
  <defs>
    <style>
      .cls-1 {
        opacity: .4;
      }

      .cls-1, .cls-2 {
        mix-blend-mode: multiply;
      }

      .cls-3 {
        fill: #a65b3c;
      }

      .cls-4 {
        fill: #e1e6eb;
      }

      .cls-5 {
        fill: #fff;
      }

      .cls-6 {
        fill: #e43f5a;
      }

      .cls-2 {
        opacity: .2;
      }

      .cls-7 {
        isolation: isolate;
      }

      .cls-8 {
        fill: #ff9a6c;
      }

      .cls-9 {
        fill: #f0f2f5;
      }

      .cls-10 {
        fill: #2d3748;
      }

      .cls-11 {
        fill: #1b1a2e;
      }

      .cls-12 {
        fill: #1f4168;
      }

      .cls-13 {
        fill: #1b1b2f;
      }

      .cls-14 {
        clip-path: url(#clippath);
      }

      .cls-15 {
        fill: #112e4c;
      }

      .cls-16 {
        fill: #ffc89f;
      }

      .cls-17 {
        fill: #f9a21b;
      }
    </style>
    <clipPath id="clippath">
      <rect class="cls-10" width="3200" height="2100"/>
    </clipPath>
  </defs>
  <g class="cls-7">
    <g id="BACK">
      <g>
        <rect class="cls-10" width="3200" height="2100"/>
        <g class="cls-14">
          <g>
            <path class="cls-9" d="M2901.1,1214.24v-94.67c0-16.53-13.4-29.92-29.92-29.92h-33.07c-12.91,0-24.39-8.26-28.4-20.53-4.83-14.78-10.74-29.08-17.63-42.8-5.78-11.5-3.5-25.42,5.61-34.52l23.31-23.31c11.69-11.69,11.69-30.63,0-42.32l-66.94-66.94c-11.69-11.69-30.63-11.69-42.32,0l-22.92,22.92c-9.14,9.14-23.14,11.4-34.66,5.54-13.83-7.04-28.26-13.08-43.18-18.01-12.21-4.04-20.4-15.51-20.4-28.36v-32.26c0-16.53-13.4-29.92-29.92-29.92h-94.67c-16.53,0-29.92,13.4-29.92,29.92v32.26c0,12.86-8.2,24.32-20.4,28.36-14.92,4.94-29.35,10.97-43.18,18.01-11.52,5.86-25.52,3.61-34.66-5.54l-22.92-22.92c-11.69-11.69-30.63-11.69-42.32,0l-66.94,66.94c-11.69,11.69-11.69,30.63,0,42.32l23.31,23.31c9.1,9.1,11.38,23.02,5.61,34.52-6.89,13.72-12.8,28.02-17.63,42.8-4.01,12.27-15.5,20.53-28.4,20.53h-33.07c-16.53,0-29.92,13.4-29.92,29.92v94.67c0,16.53,13.4,29.92,29.92,29.92h33.85c12.82,0,24.26,8.16,28.33,20.32,4.86,14.52,10.77,28.56,17.63,42.04,5.87,11.53,3.63,25.53-5.52,34.69l-24.11,24.11c-11.69,11.69-11.69,30.63,0,42.32l66.94,66.94c11.69,11.69,30.63,11.69,42.32,0l24.5-24.5c9.11-9.11,23.03-11.37,34.55-5.59,13.37,6.72,27.29,12.5,41.66,17.26,12.22,4.05,20.44,15.5,20.44,28.37v34.65c0,16.53,13.4,29.92,29.92,29.92h94.67c16.53,0,29.92-13.4,29.92-29.92v-34.65c0-12.87,8.22-24.33,20.44-28.37,14.38-4.76,28.29-10.54,41.66-17.26,11.51-5.78,25.44-3.52,34.55,5.59l24.5,24.5c11.69,11.69,30.63,11.69,42.32,0l66.94-66.94c11.69-11.69,11.69-30.63,0-42.32l-24.11-24.11c-9.15-9.15-11.39-23.15-5.52-34.69,6.86-13.48,12.77-27.53,17.63-42.04,4.07-12.16,15.51-20.32,28.33-20.32h33.85c16.53,0,29.92-13.4,29.92-29.92Zm-387.79,71.27c-66.06,0-119.8-53.74-119.8-119.8s53.74-119.8,119.8-119.8,119.8,53.74,119.8,119.8-53.74,119.8-119.8,119.8Z"/>
            <path class="cls-9" d="M2541.93,553.82v-51.32c0-8.96-7.26-16.22-16.22-16.22h-17.93c-7,0-13.22-4.48-15.4-11.13-2.62-8.01-5.82-15.76-9.56-23.2-3.13-6.24-1.89-13.78,3.04-18.71l12.64-12.64c6.34-6.34,6.34-16.61,0-22.94l-36.29-36.29c-6.34-6.34-16.61-6.34-22.94,0l-12.42,12.42c-4.96,4.96-12.54,6.18-18.79,3-7.5-3.82-15.32-7.09-23.41-9.76-6.62-2.19-11.06-8.41-11.06-15.38v-17.49c0-8.96-7.26-16.22-16.22-16.22h-51.32c-8.96,0-16.22,7.26-16.22,16.22v17.49c0,6.97-4.44,13.19-11.06,15.38-8.09,2.68-15.91,5.95-23.41,9.77-6.25,3.18-13.83,1.96-18.79-3l-12.42-12.42c-6.34-6.34-16.61-6.34-22.94,0l-36.29,36.29c-6.34,6.34-6.34,16.61,0,22.94l12.64,12.64c4.93,4.93,6.17,12.48,3.04,18.71-3.74,7.44-6.94,15.19-9.56,23.2-2.17,6.65-8.4,11.13-15.4,11.13h-17.93c-8.96,0-16.22,7.26-16.22,16.22v51.32c0,8.96,7.26,16.22,16.22,16.22h18.35c6.95,0,13.15,4.42,15.36,11.02,2.64,7.87,5.84,15.48,9.56,22.79,3.18,6.25,1.97,13.84-2.99,18.8l-13.07,13.07c-6.34,6.34-6.34,16.61,0,22.94l36.29,36.29c6.34,6.34,16.61,6.34,22.94,0l13.28-13.28c4.94-4.94,12.49-6.17,18.73-3.03,7.25,3.64,14.79,6.77,22.59,9.36,6.62,2.19,11.08,8.4,11.08,15.38v18.78c0,8.96,7.26,16.22,16.22,16.22h51.32c8.96,0,16.22-7.26,16.22-16.22v-18.78c0-6.98,4.46-13.19,11.08-15.38,7.79-2.58,15.34-5.72,22.59-9.36,6.24-3.14,13.79-1.91,18.73,3.03l13.28,13.28c6.34,6.34,16.61,6.34,22.94,0l36.29-36.29c6.34-6.34,6.34-16.61,0-22.94l-13.07-13.07c-4.96-4.96-6.17-12.55-2.99-18.8,3.72-7.31,6.92-14.92,9.56-22.79,2.21-6.59,8.41-11.02,15.36-11.02h18.35c8.96,0,16.22-7.26,16.22-16.22Zm-210.22,38.64c-35.81,0-64.94-29.13-64.94-64.94s29.13-64.94,64.94-64.94,64.94,29.13,64.94,64.94-29.13,64.94-64.94,64.94Z"/>
          </g>
        </g>
      </g>
    </g>
    <g id="LAPTOP">
      <g>
        <path class="cls-12" d="M2336.91,611.8H637.35c-31.38,0-56.82,25.44-56.82,56.82v1008.93h1813.2V668.62c0-31.38-25.44-56.82-56.82-56.82Z"/>
        <rect class="cls-5" x="621.01" y="661.15" width="1732.24" height="967.06"/>
        <path class="cls-12" d="M510.66,1761.37h1952.94c28.95,0,52.42-23.47,52.42-52.42h0c0-17.34-14.06-31.4-31.4-31.4H489.64c-17.34,0-31.4,14.06-31.4,31.4h0c0,28.95,23.47,52.42,52.42,52.42Z"/>
        <path class="cls-11" d="M1251.79,1698.43h470.67c11.53,0,20.87-9.34,20.87-20.87h-512.42c0,11.53,9.34,20.87,20.87,20.87Z"/>
        <polygon class="cls-11" points="580.53 1677.56 1487.13 1677.06 2393.73 1677.56 1487.13 1678.05 580.53 1677.56"/>
        <circle class="cls-11" cx="1487.13" cy="636.26" r="7.87"/>
        <g>
          <rect class="cls-17" x="580.53" y="1712.56" width="7.42" height="12.74" rx="1.41" ry="1.41"/>
          <rect class="cls-17" x="602.59" y="1712.56" width="7.42" height="12.74" rx="1.41" ry="1.41"/>
          <rect class="cls-11" x="624.66" y="1712.56" width="7.42" height="12.74" rx="1.41" ry="1.41"/>
        </g>
        <path class="cls-11" d="M2353.25,661.15v967.06H621.01V661.15h1732.24m1-1H620.01v969.06h1734.24V660.15h0Z"/>
      </g>
    </g>
    <g id="DATA">
      <g>
        <g>
          <path class="cls-9" d="M2109.63,494.6v954.26c0,35.4-28.7,64.09-64.09,64.09H447.95c-35.39,0-64.09-28.69-64.09-64.09V494.6h1725.76Z"/>
          <path class="cls-12" d="M447.95,378.88H2045.54c35.37,0,64.08,28.72,64.08,64.08v51.64H383.87v-51.64c0-35.37,28.72-64.08,64.08-64.08Z"/>
          <g>
            <rect class="cls-5" x="2001.1" y="426.69" width="63.61" height="20.1" transform="translate(904.24 -1309.56) rotate(45)"/>
            <rect class="cls-5" x="2001.1" y="426.69" width="63.61" height="20.1" transform="translate(3779.2 -691.92) rotate(135)"/>
          </g>
          <path class="cls-12" d="M2108.63,495.6v953.26c0,34.78-28.3,63.08-63.08,63.08H447.95c-34.78,0-63.08-28.3-63.08-63.08V495.6h1723.76m1-1H383.87v954.26c0,35.39,28.69,64.08,64.08,64.08H2045.54c35.39,0,64.08-28.69,64.08-64.08V494.6h0Z"/>
          <circle class="cls-5" cx="442.13" cy="436.74" r="21.43" transform="translate(-179.33 440.55) rotate(-45)"/>
          <circle class="cls-5" cx="504.09" cy="436.74" r="21.43" transform="translate(-161.18 484.36) rotate(-45)"/>
          <circle class="cls-5" cx="566.05" cy="436.74" r="21.43" transform="translate(23.19 901.99) rotate(-78.25)"/>
        </g>
        <g>
          <g class="cls-2">
            <path class="cls-12" d="M1258.48,1097.46v467.68c0,18.89-15.32,34.21-34.21,34.21H371.48c-18.89,0-34.21-15.32-34.21-34.21v-467.68c0-23.03,18.67-41.7,41.7-41.7h837.81c23.03,0,41.7,18.67,41.7,41.7Z"/>
          </g>
          <g>
            <g>
              <path class="cls-5" d="M1230.92,1069.31v467.68c0,18.89-15.32,34.21-34.21,34.21H343.92c-18.89,0-34.21-15.32-34.21-34.21v-467.68c0-23.03,18.67-41.7,41.7-41.7h837.81c23.03,0,41.7,18.67,41.7,41.7Z"/>
              <path class="cls-4" d="M1230.92,1181.73v355.26c0,18.9-15.32,34.2-34.2,34.2h-233.19v-253.12c21.86-22.97,30.69-56.48,47.31-84.13,26.87-44.7,77.02-74.5,129.13-76.72,31.88-1.35,63.9,7.65,90.96,24.51Z"/>
              <path class="cls-17" d="M963.52,1318.08v253.12H343.92c-18.89,0-34.21-15.31-34.21-34.2v-72.1c34.89-1.21,70.35,2.9,105.37,4.79,52.57,2.83,109-.61,151.51-31.68,45.1-32.97,69.01-93.23,120.92-113.9,42.94-17.1,91.01-1.45,135.57,10.83,44.56,12.28,97.12,19.55,132.84-9.79,2.71-2.23,5.23-4.59,7.6-7.08Z"/>
              <path class="cls-12" d="M440.82,1434.43h0c-3.87-.02-7.91-.09-12.01-.21-.28,0-.49-.24-.49-.51,0-.28,.24-.48,.51-.49,4.1,.12,8.13,.19,11.99,.21,.28,0,.5,.23,.5,.5,0,.28-.23,.5-.5,.5Zm12-.12c-.27,0-.49-.22-.5-.49,0-.28,.21-.51,.49-.51,4.08-.1,8.1-.27,11.97-.5,.27-.02,.51,.19,.53,.47,.02,.28-.19,.51-.47,.53-3.88,.23-7.92,.4-12.01,.5h-.01Zm-35.99-.58s-.02,0-.03,0l-1.75-.09c-3.41-.18-6.82-.39-10.24-.61-.28-.02-.48-.26-.47-.53s.26-.48,.53-.47c3.41,.22,6.82,.42,10.23,.61l1.75,.09c.28,.01,.49,.25,.47,.53-.01,.27-.23,.47-.5,.47Zm59.94-.85c-.25,0-.47-.19-.5-.45-.03-.27,.17-.52,.45-.55,4.04-.4,8.04-.88,11.89-1.43,.28-.04,.53,.15,.57,.42,.04,.27-.15,.53-.42,.57-3.86,.55-7.87,1.04-11.93,1.44-.02,0-.03,0-.05,0Zm-83.89-.66s-.02,0-.04,0c-2.85-.2-5.7-.41-8.55-.62l-3.42-.25c-.28-.02-.48-.26-.46-.54,.02-.27,.27-.48,.53-.46l3.42,.25c2.85,.21,5.7,.41,8.55,.62,.28,.02,.48,.26,.46,.53-.02,.26-.24,.46-.5,.46Zm-23.94-1.71s-.02,0-.03,0c-3.99-.27-7.98-.53-11.97-.76-.28-.02-.49-.25-.47-.53,.02-.28,.24-.51,.53-.47,3.99,.23,7.99,.49,11.98,.76,.28,.02,.48,.26,.47,.53-.02,.26-.24,.47-.5,.47Zm131.57-1.07c-.23,0-.44-.16-.49-.4-.05-.27,.12-.53,.39-.59,3.97-.78,7.9-1.66,11.67-2.63,.27-.07,.54,.09,.61,.36,.07,.27-.09,.54-.36,.61-3.79,.97-7.74,1.86-11.73,2.64-.03,0-.06,0-.1,0Zm-155.53-.3h-.02c-4.15-.18-8.18-.31-11.98-.4-.28,0-.49-.24-.49-.51,0-.28,.21-.46,.51-.49,3.81,.08,7.85,.22,12,.4,.28,.01,.49,.24,.48,.52-.01,.27-.23,.48-.5,.48Zm-35.27-.29c-.27,0-.49-.21-.5-.48,0-.28,.21-.51,.48-.52,3.62-.13,7.42-.2,11.29-.22h0c.27,0,.5,.22,.5,.5,0,.28-.22,.5-.5,.5-3.86,.02-7.65,.09-11.26,.22h-.02Zm214.02-5.37c-.21,0-.41-.13-.48-.35-.09-.26,.06-.54,.32-.63,3.84-1.25,7.62-2.62,11.24-4.08,.26-.1,.55,.02,.65,.28,.1,.26-.02,.55-.28,.65-3.64,1.47-7.44,2.85-11.31,4.11-.05,.02-.1,.02-.15,.02Zm22.22-9.01c-.18,0-.36-.1-.45-.28-.12-.25-.02-.55,.23-.67,3.59-1.78,7.12-3.72,10.48-5.75,.23-.14,.54-.07,.69,.17,.14,.24,.07,.54-.17,.69-3.39,2.05-6.94,3.99-10.55,5.79-.07,.04-.15,.05-.22,.05Zm20.51-12.41c-.15,0-.3-.07-.4-.2-.17-.22-.12-.53,.1-.7l.14-.11c3.06-2.24,6.16-4.7,9.22-7.34,.21-.18,.52-.16,.71,.05,.18,.21,.16,.52-.05,.71-3.08,2.65-6.2,5.14-9.28,7.39l-.13,.1c-.09,.07-.2,.1-.3,.1Zm18.2-15.6c-.13,0-.26-.05-.36-.15-.19-.2-.19-.51,0-.71,2.73-2.68,5.45-5.5,8.32-8.61,.19-.2,.5-.21,.71-.03,.2,.19,.22,.5,.03,.71-2.88,3.13-5.62,5.96-8.36,8.65-.1,.1-.22,.14-.35,.14Zm16.31-17.61c-.12,0-.23-.04-.33-.12-.21-.18-.23-.5-.05-.71,2.36-2.74,4.81-5.66,7.72-9.18,.17-.21,.49-.25,.7-.07,.21,.18,.24,.49,.07,.7-2.91,3.53-5.37,6.45-7.73,9.2-.1,.12-.24,.17-.38,.17Zm15.33-18.47c-.11,0-.22-.04-.32-.11-.21-.17-.25-.49-.07-.7,2.53-3.11,5.07-6.21,7.62-9.28,.18-.21,.49-.24,.7-.07,.21,.18,.24,.49,.07,.7-2.55,3.07-5.08,6.17-7.61,9.27-.1,.12-.24,.18-.39,.18Zm15.37-18.44c-.12,0-.23-.04-.33-.12-.21-.18-.23-.5-.05-.71,2.84-3.27,5.47-6.19,8.04-8.93,.19-.2,.51-.21,.71-.02,.2,.19,.21,.5,.02,.71-2.56,2.73-5.18,5.64-8.01,8.9-.1,.11-.24,.17-.38,.17Zm16.45-17.45c-.13,0-.26-.05-.36-.15-.19-.2-.18-.52,.02-.71,3-2.87,6.02-5.56,8.97-8,.21-.18,.53-.15,.7,.07,.18,.21,.15,.53-.07,.7-2.94,2.42-5.94,5.1-8.92,7.95-.1,.09-.22,.14-.35,.14Zm239.55-4.9h0c-3.87-.07-7.92-.28-12.01-.63-.28-.02-.48-.26-.46-.54,.02-.27,.27-.47,.54-.46,4.08,.34,8.1,.55,11.95,.63,.28,0,.5,.23,.49,.51,0,.27-.23,.49-.5,.49Zm11.99-.24c-.26,0-.48-.2-.5-.47-.02-.28,.19-.51,.47-.53,4.08-.25,8.07-.67,11.88-1.26,.28-.04,.53,.15,.57,.42,.04,.27-.14,.53-.42,.57-3.84,.6-7.86,1.02-11.97,1.27-.01,0-.02,0-.03,0Zm-35.89-1.74s-.05,0-.07,0c-3.83-.54-7.83-1.2-11.86-1.95-.27-.05-.45-.31-.4-.58,.05-.27,.31-.45,.58-.4,4.02,.75,8,1.41,11.82,1.95,.27,.04,.46,.29,.43,.56-.04,.25-.25,.43-.49,.43Zm59.55-2c-.22,0-.42-.15-.48-.37-.07-.27,.09-.54,.35-.61,3.9-1.06,7.7-2.34,11.3-3.83,.25-.11,.55,.02,.65,.27,.1,.25-.02,.55-.27,.65-3.63,1.5-7.48,2.8-11.42,3.87-.04,.01-.09,.02-.13,.02Zm-83.14-2.4s-.07,0-.11-.01c-3.76-.86-7.69-1.82-11.67-2.86-.27-.07-.43-.34-.36-.61,.07-.27,.34-.43,.61-.36,3.98,1.04,7.89,2,11.64,2.86,.27,.06,.44,.33,.38,.6-.05,.23-.26,.39-.49,.39Zm-173.55-3.93c-.16,0-.32-.08-.41-.22-.16-.23-.1-.54,.13-.7,3.37-2.31,6.83-4.42,10.27-6.28,.24-.13,.55-.04,.68,.2,.13,.24,.04,.55-.2,.68-3.41,1.84-6.84,3.93-10.18,6.22-.09,.06-.19,.09-.28,.09Zm150.32-2.09s-.09,0-.13-.02l-3.18-.89c-2.78-.78-5.58-1.56-8.38-2.33-.27-.07-.42-.35-.35-.61,.07-.27,.35-.42,.62-.35,2.8,.78,5.6,1.56,8.39,2.33l3.18,.89c.27,.07,.42,.35,.35,.62-.06,.22-.26,.37-.48,.37Zm128.47-.75c-.17,0-.34-.09-.43-.25-.14-.24-.06-.54,.18-.68,3.42-2.01,6.72-4.29,9.81-6.77,.22-.17,.53-.14,.7,.08,.17,.21,.14,.53-.08,.7-3.12,2.51-6.46,4.82-9.93,6.85-.08,.05-.17,.07-.25,.07Zm-151.61-5.61s-.09,0-.13-.02c-4.22-1.11-8.02-2.08-11.62-2.94-.27-.06-.43-.33-.37-.6,.06-.27,.33-.43,.6-.37,3.61,.87,7.42,1.83,11.64,2.95,.27,.07,.43,.34,.36,.61-.06,.22-.26,.37-.48,.37Zm-106.08-2.85c-.2,0-.39-.12-.46-.32-.1-.26,.02-.55,.28-.65,3.7-1.46,7.55-2.73,11.45-3.75,.27-.07,.54,.09,.61,.36,.07,.27-.09,.54-.36,.61-3.86,1.02-7.68,2.27-11.34,3.72-.06,.02-.12,.04-.18,.04Zm82.74-2.72s-.07,0-.1-.01c-4.07-.84-8.03-1.58-11.78-2.18-.27-.04-.46-.3-.41-.57,.04-.27,.29-.46,.57-.41,3.76,.61,7.74,1.35,11.82,2.19,.27,.06,.44,.32,.39,.59-.05,.24-.26,.4-.49,.4Zm-59.6-3.41c-.24,0-.46-.18-.49-.43-.04-.27,.15-.53,.42-.57,3.87-.57,7.91-.96,11.99-1.16,.26-.04,.51,.2,.52,.47,.01,.28-.2,.51-.48,.52-4.05,.2-8.05,.59-11.89,1.15-.02,0-.05,0-.07,0Zm35.9-.37s-.04,0-.05,0c-4.08-.43-8.1-.71-11.93-.85-.28,0-.49-.24-.48-.52,0-.28,.26-.48,.52-.48,3.86,.14,7.9,.42,12,.86,.27,.03,.47,.27,.45,.55-.03,.26-.24,.45-.5,.45Zm217.28-.02c-.12,0-.25-.04-.34-.13-.2-.19-.21-.5-.02-.71,2.61-2.79,5.17-5.88,7.6-9.2,.16-.22,.48-.27,.7-.11,.22,.16,.27,.48,.11,.7-2.46,3.34-5.04,6.47-7.67,9.29-.1,.11-.23,.16-.37,.16Zm14.26-19.24c-.09,0-.18-.02-.26-.07-.24-.14-.31-.45-.17-.69,1.93-3.21,3.84-6.62,5.83-10.45,.13-.25,.43-.34,.67-.21,.24,.13,.34,.43,.21,.67-2,3.85-3.92,7.28-5.86,10.51-.09,.16-.26,.24-.43,.24Zm11.17-21.23c-.07,0-.14-.02-.21-.05-.25-.12-.36-.42-.24-.67,1.71-3.59,3.41-7.28,5.05-10.85l.47,.18,.44,.23c-1.65,3.57-3.35,7.26-5.06,10.86-.09,.18-.27,.29-.45,.29Zm10.13-21.76c-.07,0-.15-.02-.21-.05-.25-.12-.36-.42-.24-.67,1.93-4.07,3.68-7.59,5.33-10.77,.13-.25,.43-.34,.67-.21,.25,.13,.34,.43,.21,.67-1.65,3.17-3.39,6.68-5.31,10.74-.09,.18-.27,.29-.45,.29Zm11.15-21.24c-.09,0-.18-.02-.26-.07-.24-.14-.31-.45-.17-.69l.05-.09c2.03-3.38,4.24-6.74,6.55-9.97,.16-.22,.47-.28,.7-.12,.22,.16,.28,.47,.12,.7-2.3,3.22-4.49,6.55-6.51,9.91l-.05,.09c-.09,.16-.26,.24-.43,.24Zm13.94-19.5c-.11,0-.23-.04-.32-.12-.21-.18-.24-.49-.06-.7,2.56-3.05,5.28-6.04,8.09-8.91,.19-.2,.51-.2,.71,0,.2,.19,.2,.51,0,.71-2.79,2.85-5.5,5.83-8.04,8.85-.1,.12-.24,.18-.38,.18Zm16.78-17.13c-.14,0-.28-.06-.38-.17-.18-.21-.16-.52,.05-.71,3-2.63,6.13-5.19,9.33-7.6,.22-.17,.53-.12,.7,.1,.17,.22,.12,.53-.1,.7-3.17,2.4-6.29,4.94-9.27,7.56-.1,.08-.21,.12-.33,.12Zm19.13-14.46c-.16,0-.32-.08-.42-.23-.15-.23-.08-.54,.15-.69,3.35-2.17,6.83-4.24,10.34-6.16,.24-.13,.55-.04,.68,.2,.13,.24,.04,.55-.2,.68-3.48,1.91-6.94,3.97-10.27,6.12-.08,.05-.18,.08-.27,.08Zm170.3-1.21c-.09,0-.18-.02-.26-.08-3.36-2.1-6.85-4.1-10.38-5.95-.24-.13-.34-.43-.21-.67,.13-.25,.43-.34,.68-.21,3.54,1.86,7.05,3.88,10.44,5.99,.23,.15,.31,.45,.16,.69-.09,.15-.26,.24-.42,.24Zm-149.27-10.31c-.19,0-.37-.11-.46-.29-.11-.25,0-.55,.25-.66,3.64-1.66,7.38-3.21,11.12-4.59,.26-.1,.55,.04,.64,.29,.1,.26-.04,.55-.29,.64-3.72,1.38-7.44,2.91-11.06,4.56-.07,.03-.14,.04-.21,.04Zm128.04-.85c-.07,0-.13-.01-.2-.04-3.64-1.59-7.38-3.06-11.13-4.38-.26-.09-.4-.38-.31-.64,.09-.26,.38-.4,.64-.31,3.77,1.33,7.54,2.81,11.2,4.41,.25,.11,.37,.41,.26,.66-.08,.19-.27,.3-.46,.3Zm-105.56-7.47c-.22,0-.42-.14-.48-.36-.08-.26,.08-.54,.34-.62,3.85-1.11,7.79-2.08,11.68-2.88,.27-.06,.53,.12,.59,.39,.06,.27-.12,.53-.39,.59-3.87,.8-7.78,1.76-11.61,2.86-.05,.01-.09,.02-.14,.02Zm82.94-.5s-.09,0-.13-.02c-3.84-1.04-7.76-1.95-11.65-2.7-.27-.05-.45-.31-.4-.59,.05-.27,.31-.44,.59-.4,3.91,.75,7.86,1.67,11.72,2.72,.27,.07,.42,.35,.35,.61-.06,.22-.26,.37-.48,.37Zm-59.46-4.34c-.25,0-.46-.18-.5-.44-.03-.27,.16-.52,.43-.56,3.98-.5,8.02-.85,11.99-1.03,.28-.03,.51,.2,.52,.48,.01,.28-.2,.51-.48,.52-3.95,.18-7.96,.52-11.91,1.02-.02,0-.04,0-.06,0Zm35.91-.18s-.04,0-.06,0c-3.96-.45-7.97-.75-11.92-.89-.28,0-.49-.24-.48-.52,0-.28,.27-.48,.52-.48,3.98,.14,8.02,.44,12,.9,.27,.03,.47,.28,.44,.55-.03,.25-.25,.44-.5,.44Z"/>
              <path class="cls-12" d="M1189.22,1028.61c22.44,0,40.7,18.26,40.7,40.7v467.68c0,18.31-14.9,33.21-33.21,33.21H343.92c-18.31,0-33.21-14.9-33.21-33.21v-467.68c0-22.44,18.26-40.7,40.7-40.7h837.81m0-1H351.41c-23.03,0-41.7,18.67-41.7,41.7v467.68c0,18.89,15.32,34.21,34.21,34.21h852.79c18.89,0,34.21-15.32,34.21-34.21v-467.68c0-23.03-18.67-41.7-41.7-41.7h0Z"/>
            </g>
            <path class="cls-12" d="M383.08,1090.95h168.42c3.62,0,6.55,2.94,6.55,6.55v17.14c0,3.62-2.94,6.55-6.55,6.55h-168.42c-3.62,0-6.55-2.94-6.55-6.55v-17.14c0-3.62,2.94-6.55,6.55-6.55Z"/>
            <rect class="cls-9" x="376.53" y="1145.38" width="90.76" height="30.24" rx="6.55" ry="6.55"/>
            <rect class="cls-9" x="376.53" y="1199.81" width="45.38" height="30.24" rx="6.55" ry="6.55"/>
            <path class="cls-12" d="M963.52,1571.7c-.28,0-.5-.22-.5-.5v-403.95c0-.28,.22-.5,.5-.5s.5,.22,.5,.5v403.95c0,.28-.22,.5-.5,.5Z"/>
            <g>
              <path class="cls-17" d="M1020.57,981.84h-114.1c-5.56,0-10.07,4.51-10.07,10.07v106.2c0,5.56,4.51,10.07,10.07,10.07h39.93l14.03,19.45c1.52,2.11,4.66,2.11,6.18,0l14.03-19.45h39.93c5.56,0,10.07-4.51,10.07-10.07v-106.2c0-5.56-4.51-10.07-10.07-10.07Z"/>
              <path class="cls-5" d="M952.71,1069.52l-22.81-22.89c-1.42-1.42-1.41-3.72,0-5.14l7.28-7.29c1.42-1.42,3.73-1.42,5.15,0l12.93,13.01,29.42-29.25c1.42-1.41,3.72-1.41,5.14,0l7.29,7.29c1.42,1.42,1.42,3.73,0,5.15l-39.27,39.11c-1.42,1.42-3.73,1.41-5.14,0Z"/>
            </g>
            <g>
              <path class="cls-17" d="M715.99,1172.75h-53.73c-2.62,0-4.74,2.12-4.74,4.74v50.01c0,2.62,2.12,4.74,4.74,4.74h18.81l6.61,9.16c.72,.99,2.2,.99,2.91,0l6.61-9.16h18.81c2.62,0,4.74-2.12,4.74-4.74v-50.01c0-2.62-2.12-4.74-4.74-4.74Z"/>
              <path class="cls-5" d="M684.04,1214.04l-10.74-10.78c-.67-.67-.67-1.75,0-2.42l3.43-3.43c.67-.67,1.76-.67,2.43,0l6.09,6.13,13.86-13.78c.67-.67,1.75-.66,2.42,0l3.43,3.43c.67,.67,.67,1.76,0,2.43l-18.49,18.42c-.67,.67-1.75,.67-2.42,0Z"/>
            </g>
            <g>
              <path class="cls-17" d="M435.01,1324.1h-53.73c-2.62,0-4.74,2.12-4.74,4.74v50.01c0,2.62,2.12,4.74,4.74,4.74h18.81l6.61,9.16c.72,.99,2.2,.99,2.91,0l6.61-9.16h18.81c2.62,0,4.74-2.12,4.74-4.74v-50.01c0-2.62-2.12-4.74-4.74-4.74Z"/>
              <path class="cls-5" d="M403.05,1365.39l-10.74-10.78c-.67-.67-.67-1.75,0-2.42l3.43-3.43c.67-.67,1.76-.67,2.43,0l6.09,6.13,13.86-13.78c.67-.67,1.75-.66,2.42,0l3.43,3.43c.67,.67,.67,1.76,0,2.43l-18.49,18.42c-.67,.67-1.76,.67-2.42,0Z"/>
            </g>
            <circle class="cls-12" cx="408.14" cy="1432.59" r="9.22"/>
            <circle class="cls-12" cx="689.13" cy="1286.46" r="9.22"/>
            <circle class="cls-12" cx="963.52" cy="1167.25" r="9.22"/>
            <path class="cls-12" d="M689.13,1302.76c-8.99,0-16.3-7.31-16.3-16.3s7.31-16.3,16.3-16.3,16.3,7.31,16.3,16.3-7.31,16.3-16.3,16.3Zm0-31.6c-8.44,0-15.3,6.86-15.3,15.3s6.86,15.3,15.3,15.3,15.3-6.86,15.3-15.3-6.86-15.3-15.3-15.3Z"/>
            <path class="cls-12" d="M963.52,1183.55c-8.99,0-16.3-7.31-16.3-16.3s7.31-16.3,16.3-16.3,16.3,7.31,16.3,16.3-7.31,16.3-16.3,16.3Zm0-31.6c-8.44,0-15.3,6.86-15.3,15.3s6.86,15.3,15.3,15.3,15.3-6.86,15.3-15.3-6.86-15.3-15.3-15.3Z"/>
            <path class="cls-12" d="M408.14,1448.89c-8.99,0-16.3-7.31-16.3-16.3s7.31-16.3,16.3-16.3,16.3,7.31,16.3,16.3-7.31,16.3-16.3,16.3Zm0-31.6c-8.44,0-15.3,6.86-15.3,15.3s6.86,15.3,15.3,15.3,15.3-6.86,15.3-15.3-6.86-15.3-15.3-15.3Z"/>
          </g>
        </g>
        <g>
          <g class="cls-2">
            <rect class="cls-12" x="319.81" y="629.04" width="381.61" height="348.58" rx="28.62" ry="28.62"/>
          </g>
          <g>
            <g>
              <rect class="cls-5" x="292.25" y="600.89" width="381.61" height="348.58" rx="28.62" ry="28.62"/>
              <path class="cls-12" d="M645.24,949.97H320.87c-16.06,0-29.12-13.06-29.12-29.12v-291.34c0-16.06,13.06-29.12,29.12-29.12h324.37c16.06,0,29.12,13.06,29.12,29.12v291.34c0,16.06-13.06,29.12-29.12,29.12Zm-324.37-348.58c-15.51,0-28.12,12.61-28.12,28.12v291.34c0,15.51,12.61,28.12,28.12,28.12h324.37c15.51,0,28.12-12.61,28.12-28.12v-291.34c0-15.51-12.61-28.12-28.12-28.12H320.87Z"/>
            </g>
            <g>
              <path class="cls-4" d="M447.98,845.31c53.61,0,97.22-43.61,97.22-97.22,0-53.61-43.61-97.22-97.22-97.22s-97.22,43.61-97.22,97.22,43.61,97.22,97.22,97.22Zm0-151.41c29.88,0,54.19,24.31,54.19,54.19s-24.31,54.19-54.19,54.19-54.19-24.31-54.19-54.19,24.31-54.19,54.19-54.19Z"/>
              <path class="cls-17" d="M340,748.08h64.55c0-23.95,19.48-43.43,43.43-43.43v-64.55c-59.54,0-107.98,48.44-107.98,107.98Z"/>
              <path class="cls-12" d="M496.79,748.08h53.79c0-56.57-46.03-102.6-102.6-102.6v53.79c26.91,0,48.81,21.9,48.81,48.81Z"/>
            </g>
            <rect class="cls-4" x="345.39" y="874.42" width="90.98" height="13.29" rx="2.33" ry="2.33"/>
            <rect class="cls-4" x="345.39" y="898.98" width="156.78" height="13.29" rx="2.33" ry="2.33"/>
            <rect class="cls-12" x="587.75" y="640.14" width="46.75" height="22.83" rx="1.98" ry="1.98"/>
            <rect class="cls-4" x="587.75" y="700.92" width="46.75" height="22.83" rx="1.98" ry="1.98"/>
            <rect class="cls-12" x="587.75" y="761.7" width="46.75" height="22.83" rx="1.98" ry="1.98"/>
            <rect class="cls-4" x="587.75" y="822.47" width="46.75" height="22.83" rx="1.98" ry="1.98"/>
          </g>
        </g>
        <g>
          <g class="cls-2">
            <rect class="cls-12" x="771.19" y="482.02" width="487.29" height="445.11" rx="36.55" ry="36.55"/>
          </g>
          <rect class="cls-5" x="743.63" y="453.87" width="487.29" height="445.11" rx="36.55" ry="36.55"/>
          <g>
            <g>
              <rect class="cls-4" x="1158.92" y="505.86" width="20.92" height="330.98"/>
              <rect class="cls-4" x="1132.12" y="635.19" width="20.92" height="201.66"/>
              <rect class="cls-4" x="1105.32" y="718.38" width="20.92" height="118.46"/>
              <rect class="cls-4" x="1055.38" y="642.43" width="20.92" height="194.41"/>
              <rect class="cls-4" x="1028.58" y="574.46" width="20.92" height="262.39"/>
              <rect class="cls-4" x="1001.79" y="666.54" width="20.92" height="170.31"/>
              <rect class="cls-4" x="951.85" y="571.99" width="20.92" height="264.86"/>
              <rect class="cls-4" x="925.05" y="746.25" width="20.92" height="90.59"/>
              <rect class="cls-4" x="898.25" y="621.42" width="20.92" height="215.42"/>
              <rect class="cls-4" x="848.32" y="671.35" width="20.92" height="165.49"/>
              <rect class="cls-4" x="821.52" y="635.19" width="20.92" height="201.66"/>
              <rect class="cls-4" x="794.72" y="571.99" width="20.92" height="264.86"/>
            </g>
            <g>
              <rect class="cls-12" x="1158.92" y="617.99" width="20.92" height="218.85"/>
              <rect class="cls-17" x="1132.12" y="703.5" width="20.92" height="133.34"/>
              <rect class="cls-17" x="1105.32" y="758.51" width="20.92" height="78.33"/>
              <rect class="cls-12" x="1055.38" y="708.3" width="20.92" height="128.55"/>
              <rect class="cls-17" x="1028.58" y="663.35" width="20.92" height="173.49"/>
              <rect class="cls-17" x="1001.79" y="724.23" width="20.92" height="112.61"/>
              <rect class="cls-12" x="951.85" y="661.72" width="20.92" height="175.13"/>
              <rect class="cls-17" x="925.05" y="776.94" width="20.92" height="59.9"/>
              <rect class="cls-17" x="898.25" y="694.4" width="20.92" height="142.44"/>
              <rect class="cls-12" x="848.32" y="727.42" width="20.92" height="109.42"/>
              <rect class="cls-17" x="821.52" y="703.5" width="20.92" height="133.34"/>
              <rect class="cls-17" x="794.72" y="661.72" width="20.92" height="175.13"/>
            </g>
          </g>
          <path class="cls-12" d="M1194.38,899.48h-414.2c-20.43,0-37.05-16.62-37.05-37.05V490.42c0-20.43,16.62-37.05,37.05-37.05h414.2c20.43,0,37.05,16.62,37.05,37.05v372.02c0,20.43-16.62,37.05-37.05,37.05Zm-414.2-445.11c-19.88,0-36.05,16.17-36.05,36.05v372.02c0,19.88,16.17,36.05,36.05,36.05h414.2c19.88,0,36.05-16.17,36.05-36.05V490.42c0-19.88-16.17-36.05-36.05-36.05h-414.2Z"/>
        </g>
        <g>
          <g class="cls-2">
            <polygon class="cls-12" points="1964.91 299.49 1325.08 299.49 1325.08 299.49 1325.08 1628.21 1964.91 1628.21 1964.91 299.49"/>
          </g>
          <g>
            <polygon class="cls-5" points="1937.36 271.34 1297.52 271.34 1297.52 271.34 1297.52 1628.21 1937.36 1628.21 1937.36 379.4 1991.39 379.4 1991.39 271.34 1937.36 271.34"/>
            <path class="cls-4" d="M1991.39,271.34h0c29.82,0,54.03,24.21,54.03,54.03v54.03h-108.06v-54.03c0-29.82,24.21-54.03,54.03-54.03Z"/>
            <path class="cls-12" d="M1937.86,1628.71h-640.83V325.37c0-30.07,24.46-54.53,54.53-54.53h639.83c30.07,0,54.53,24.46,54.53,54.53v54.53h-108.06V1628.71Zm-639.83-1h638.83V378.9h108.06v-53.53c0-29.52-24.01-53.53-53.53-53.53h-639.83c-29.52,0-53.53,24.01-53.53,53.53V1627.71Z"/>
            <path class="cls-12" d="M1937.86,379.4h-1v-54.03c0-30.07,24.46-54.53,54.53-54.53v1c-29.52,0-53.53,24.01-53.53,53.53v54.03Z"/>
          </g>
          <g>
            <rect class="cls-17" x="1390.13" y="355.06" width="107.53" height="107.53" rx="10.39" ry="10.39"/>
            <rect class="cls-9" x="1561.04" y="355.06" width="273.49" height="38.51" rx="10.72" ry="10.72"/>
            <rect class="cls-4" x="1561.04" y="424.08" width="186.49" height="38.51" rx="10.72" ry="10.72"/>
            <path class="cls-5" d="M1433.73,433.07l-21.46-21.53c-1.33-1.34-1.33-3.5,0-4.84l6.85-6.85c1.34-1.34,3.51-1.34,4.85,0l12.17,12.24,27.68-27.52c1.34-1.33,3.5-1.33,4.83,0l6.86,6.86c1.34,1.34,1.34,3.51,0,4.85l-36.94,36.79c-1.34,1.33-3.51,1.33-4.84,0Z"/>
            <rect class="cls-17" x="1390.13" y="540.92" width="107.53" height="107.53" rx="10.39" ry="10.39"/>
            <rect class="cls-9" x="1561.04" y="540.92" width="273.49" height="38.51" rx="10.72" ry="10.72"/>
            <rect class="cls-9" x="1561.04" y="609.94" width="186.49" height="38.51" rx="10.72" ry="10.72"/>
            <path class="cls-5" d="M1433.73,618.92l-21.46-21.53c-1.33-1.34-1.33-3.5,0-4.84l6.85-6.85c1.34-1.34,3.51-1.34,4.85,0l12.17,12.24,27.68-27.52c1.34-1.33,3.5-1.33,4.83,0l6.86,6.86c1.34,1.34,1.34,3.51,0,4.85l-36.94,36.79c-1.34,1.33-3.51,1.33-4.84,0Z"/>
            <rect class="cls-17" x="1390.13" y="726.78" width="107.53" height="107.53" rx="10.39" ry="10.39"/>
            <rect class="cls-4" x="1561.04" y="726.78" width="273.49" height="38.51" rx="10.72" ry="10.72"/>
            <rect class="cls-9" x="1561.04" y="795.8" width="186.49" height="38.51" rx="10.72" ry="10.72"/>
            <path class="cls-5" d="M1433.73,804.78l-21.46-21.53c-1.33-1.34-1.33-3.5,0-4.84l6.85-6.85c1.34-1.34,3.51-1.34,4.85,0l12.17,12.24,27.68-27.52c1.34-1.33,3.5-1.33,4.83,0l6.86,6.86c1.34,1.34,1.34,3.51,0,4.85l-36.94,36.79c-1.34,1.33-3.51,1.33-4.84,0Z"/>
            <rect class="cls-17" x="1390.13" y="912.63" width="107.53" height="107.53" rx="10.39" ry="10.39"/>
            <rect class="cls-4" x="1561.04" y="912.63" width="273.49" height="38.51" rx="10.72" ry="10.72"/>
            <rect class="cls-4" x="1561.04" y="981.66" width="186.49" height="38.51" rx="10.72" ry="10.72"/>
            <path class="cls-5" d="M1433.73,990.64l-21.46-21.53c-1.33-1.34-1.33-3.5,0-4.84l6.85-6.85c1.34-1.34,3.51-1.34,4.85,0l12.17,12.24,27.68-27.52c1.34-1.33,3.5-1.33,4.83,0l6.86,6.86c1.34,1.34,1.34,3.51,0,4.85l-36.94,36.79c-1.34,1.33-3.51,1.33-4.84,0Z"/>
          </g>
          <g>
            <path class="cls-17" d="M1683.72,1427.5h-141.76v-141.76c78.29,0,141.76,63.47,141.76,141.76Z"/>
            <path class="cls-12" d="M1673.64,1437.58l-.05,3.66v.06c-.65,24.89-7.7,48.18-19.58,68.29-24.67,41.74-70.13,69.74-122.13,69.74-28.56,0-55.14-8.44-77.4-22.98-38.75-25.3-64.35-69.05-64.35-118.77,0-78.29,63.47-141.76,141.76-141.76v141.76h141.76Z"/>
            <path class="cls-15" d="M1673.64,1437.58l-.05,3.66v.06c-.65,24.89-7.7,48.18-19.58,68.29-24.67,41.74-70.13,69.74-122.13,69.74-28.56,0-55.14-8.44-77.4-22.98l77.4-118.77h141.76Z"/>
          </g>
          <g>
            <rect class="cls-12" x="1390.13" y="1125.36" width="37.42" height="37.42" rx="7.67" ry="7.67"/>
            <rect class="cls-17" x="1390.13" y="1190.16" width="37.42" height="37.42" rx="7.67" ry="7.67"/>
            <rect class="cls-9" x="1452.69" y="1125.36" width="285.18" height="37.42" rx="7.67" ry="7.67"/>
            <rect class="cls-9" x="1452.69" y="1190.16" width="161.1" height="37.42" rx="7.67" ry="7.67"/>
          </g>
          <g>
            <rect class="cls-9" x="1786.32" y="1295.82" width="48.21" height="37.42" rx="7.67" ry="7.67"/>
            <rect class="cls-17" x="1797.11" y="1360.62" width="37.42" height="37.42" rx="7.67" ry="7.67"/>
            <rect class="cls-12" x="1766.35" y="1425.42" width="68.17" height="37.42" rx="7.67" ry="7.67"/>
            <rect class="cls-4" x="1786.32" y="1490.22" width="48.21" height="37.42" rx="7.67" ry="7.67"/>
          </g>
        </g>
      </g>
    </g>
    <g id="CHARACTER">
      <g>
        <g>
          <path class="cls-17" d="M2262.01,1750.62v3.67c0,3.5,2.84,6.33,6.33,6.33l77.13,.75c3,0,5.67-2.09,6.2-5.05,1.1-6.13-3.33-8.84-3.33-8.84,3.5-7.01,2.05-17.83,.8-21.7-1.28-3.96-2.05-8.06-2.05-12.22v-1.99c0-2.84,.34-5.65,.89-8.43,2.47-12.47-2.35-19.03-2.59-19.36,0,0,0,0,0,0,0,0,4.56-23.5-27.95-22.65-35.85,.94-28.22,24.3-28.22,24.3-.06,.15-.1,.3-.15,.45-2.97,8.91-2.55,18.76-2.55,18.76-5.48,12.89-13.28,16.46-20.36,24.52-2.81,3.2-3.66,6.85-3.66,10.11,0,4.93,1.95,8.92,1.95,8.92-1.34,0-2.44,1.09-2.44,2.44Z"/>
          <path class="cls-9" d="M2262.01,1750.62v3.67c0,3.5,2.84,6.33,6.33,6.33l77.13,.75c3,0,5.67-2.09,6.2-5.05,1.1-6.13-3.33-8.84-3.33-8.84h0c-7.81,0-15.36-2.85-21.22-8.01l-7.05-6.22c-5.11-4.5-12.88-4.1-17.51,.9l-4.09,4.43c-5.94,6.43-14.24,10.14-22.99,10.32-3.65,.07-7.53-.09-11.05-.72-1.34,0-2.44,1.09-2.44,2.44Z"/>
          <path class="cls-9" d="M2327.29,1734.89c10.44,0,18.12-5.15,21.7-14.88,.28-.76-.11-1.61-.87-1.89-.76-.28-1.61,.11-1.89,.87-5.6,15.2-20.24,13.79-28.47,11.6-4.12-1.1-8.4-1.26-12.74-.48-23.59,4.24-34.78-5.11-34.89-5.21-.61-.53-1.54-.46-2.07,.15-.53,.61-.47,1.54,.14,2.07,.49,.43,12.25,10.4,37.35,5.89,3.91-.7,7.77-.56,11.46,.42,3.66,.98,7.1,1.45,10.29,1.45Z"/>
          <path class="cls-9" d="M2287.5,1717.94c21.1-7.98,44.01-2.69,49.74-1.13,.62,.17,1.2-.35,1.11-.99-.88-5.94,.33-14.03,1.29-19,.41-2.13,3.1-2.88,4.55-1.26,3.72,4.16,3.81,7.59,3.81,7.59,2.47-12.47-2.35-19.03-2.59-19.36,0,0,0,0,0,0-.08-.04-.16-.09-.24-.13-6.49-3.65-14.77,0-16.34,7.27-1.13,5.23-1.24,10.16-1.23,12.25,0,.55-.48,.96-1.02,.88-13.52-1.93-25.56,.03-29.39,.77-.61,.12-1.15-.41-1.05-1.03,.71-4.18,1.6-7.55,2.47-10.18,1.85-5.61-4.15-10.68-9.34-7.84-.06,.03-.13,.07-.19,.11-2.97,8.91-2.55,18.76-2.55,18.76,1.35,4.93,.47,9.73-.2,12.23-.19,.71,.5,1.32,1.19,1.06Z"/>
          <path class="cls-9" d="M2331.85,1688.15c.55,0,.91-.33,1.07-.52,.53-.62,.45-1.55-.17-2.07-.09-.07-.18-.14-.28-.19l-.08-.05c-3.49-2.14-16.01-8.76-30.61-4.14-.78,.25-1.2,1.07-.96,1.85,.25,.78,1.07,1.2,1.85,.96,13.41-4.24,24.96,1.87,28.18,3.85,.39,.24,.72,.32,1,.32Z"/>
          <g>
            <path class="cls-12" d="M2324.74,1692.39c.69,0,1.08-.49,1.17-.62,.47-.66,.31-1.58-.36-2.05-.09-.07-.19-.12-.29-.16l-.06-.03c-2.87-1.41-13.08-5.64-24.1-.97-.75,.32-1.1,1.18-.78,1.93,.32,.75,1.18,1.1,1.93,.78,9.87-4.18,19.07-.36,21.66,.91,.31,.15,.59,.21,.83,.21Z"/>
            <path class="cls-12" d="M2324.74,1697.53c.69,0,1.08-.49,1.17-.62,.47-.66,.31-1.58-.36-2.05-.09-.07-.19-.12-.29-.16l-.06-.03c-2.87-1.41-13.09-5.64-24.1-.98-.75,.32-1.1,1.18-.78,1.93,.32,.75,1.18,1.1,1.93,.78,9.87-4.18,19.07-.36,21.66,.91,.31,.15,.59,.21,.83,.21Z"/>
            <path class="cls-12" d="M2324.75,1702.66c.7,0,1.09-.5,1.18-.63,.46-.67,.29-1.59-.38-2.05-.09-.06-.18-.11-.28-.15l-.06-.03c-2.87-1.41-13.09-5.63-24.1-.97-.75,.32-1.1,1.18-.78,1.93,.32,.75,1.18,1.1,1.93,.78,9.86-4.17,19.07-.36,21.66,.91,.31,.15,.59,.21,.83,.21Z"/>
          </g>
        </g>
        <g>
          <path class="cls-17" d="M2445.76,1702.37c-3.57,2.83-4.1,13.21-3.92,21.31,.07,3.16,.54,6.27,1.38,9.29,.84,3.02,2.06,5.95,3.62,8.69-1.68,2.37-2.46,5.13-2.73,7.78-.57,5.51,4.49,9.91,9.85,8.54,2.17-.56,4.72-1.15,7.59-1.72,5.49-1.09,9.2,.5,11.45,2.2,2.44,1.83,5.37,2.93,8.43,2.91l18.25-.1,44.48-.23,4.63-.03c2.92-.02,5.28-2.41,5.24-5.35l-.07-5.9s5.2-7.69,2-16.44c-3.2-8.75-18.57-14.35-18.57-14.35,0,0,0,0,.02,0,.33-.17,4.98-2.74-2.64-9.7-7.89-7.22-22.3-28.49-27.01-30.77-4.21-2.04-7.11,1.03-7.68,1.69-.01,.02-.03,.04-.04,.05,2.19-7.21-1.76-17.71-6.48-20.05-15.66-7.74-48.24,8.26-50.53,17.31-2.28,9.05,5,10.02,5,10.02-7.42,4.22-2.46,14.46-2.28,14.84h0Z"/>
          <path class="cls-9" d="M2474.82,1749.68c-8.9-.2-15.38-7.33-17.03-14.18-1.63-6.79,1.22-12.84,7.44-15.79,7-3.31,15.49,1.16,24.47,5.9,10.66,5.61,21.68,11.42,31.49,5.62,.7-.41,1.6-.18,2.02,.52,.41,.7,.18,1.6-.52,2.02-11.23,6.64-23.51,.17-34.36-5.55-8.32-4.38-16.17-8.52-21.84-5.84-4.96,2.35-7.14,7-5.83,12.44,1.43,5.96,7.16,12.15,14.98,11.93,.81-.03,1.49,.61,1.52,1.43,.02,.81-.61,1.49-1.43,1.52-.3,0-.6,0-.9,0Z"/>
          <path class="cls-9" d="M2535.62,1734.36c-4.13-.09-7.75-.65-8.56-.79-.8-.13-1.35-.89-1.21-1.69,.13-.8,.89-1.34,1.69-1.21,6.21,1.02,16.87,1.47,19.05-1.67,.66-.95,.44-2.41-.66-4.32-.4-.71-.16-1.6,.55-2.01,.7-.4,1.6-.16,2.01,.55,1.71,2.99,1.89,5.5,.52,7.47-2.2,3.16-8.19,3.79-13.39,3.68Z"/>
          <path class="cls-9" d="M2445.75,1702.36h0s8.28-15.35,21.29-5.58c13.02,9.77,16.8,23.54,30.46,20.12,15.99-4.02,31.97-2.49,39.87,2.08,0,0,0,0,.02,0,.33-.17,4.98-2.74-2.64-9.7-7.89-7.22-22.3-28.49-27.01-30.77-4.21-2.04-7.11,1.03-7.68,1.69-.01,.02-.03,.04-.04,.05-.02,.03-.03,.05-.03,.05,7.12,4.24,23.94,27.26,23.94,27.26-16.33-5.25-33.71,.26-33.71,.26,0,0-12.98-18.29-23.14-25.35-10.15-7.07-19.08,5.06-19.08,5.06-7.42,4.22-2.46,14.46-2.28,14.84Z"/>
          <path class="cls-9" d="M2477.45,1683.33c-.53-.01-1.04-.31-1.29-.82-.36-.73-.06-1.61,.67-1.97,12.54-6.15,23.32-1.85,23.77-1.67,.75,.31,1.11,1.17,.8,1.92-.31,.75-1.17,1.11-1.92,.8-.15-.06-10.08-3.95-21.36,1.59-.22,.11-.45,.15-.68,.15Z"/>
          <g>
            <path class="cls-12" d="M2489.84,1705.47c-.89-.02-1.73-.52-2.15-1.37-.6-1.22-.09-2.69,1.12-3.28,14.83-7.27,27.61-2.17,28.15-1.95,1.25,.52,1.85,1.95,1.34,3.2-.51,1.25-1.95,1.85-3.2,1.34-.18-.07-11.4-4.43-24.13,1.82-.37,.18-.75,.26-1.13,.25Z"/>
            <path class="cls-12" d="M2486.8,1700.34c-.8-.02-1.58-.43-2.03-1.16-.71-1.15-.35-2.66,.8-3.38,14.06-8.68,27.28-4.83,27.83-4.67,1.3,.39,2.03,1.76,1.64,3.06-.39,1.29-1.75,2.03-3.05,1.64-.15-.05-11.75-3.32-23.84,4.14-.42,.26-.88,.38-1.34,.37Z"/>
            <path class="cls-12" d="M2481.04,1693.63c-.83-.02-1.62-.45-2.07-1.22-.68-1.17-.28-2.67,.89-3.35,14.29-8.28,27.4-4.08,27.95-3.9,1.29,.43,1.98,1.82,1.56,3.1-.43,1.28-1.81,1.98-3.09,1.56-.17-.05-11.67-3.63-23.95,3.48-.4,.23-.85,.34-1.28,.33Z"/>
          </g>
          <path class="cls-9" d="M2453.95,1757.99c2.17-.56,4.72-1.15,7.59-1.72,5.49-1.09,9.2,.5,11.45,2.2,2.44,1.83,5.37,2.93,8.43,2.91l14.43-.08c2.45-.01,4.81-.96,6.59-2.64l17.77-16.79c2.54-2.4,6.58-2.14,8.78,.57l12.23,15.02c1.85,2.27,4.63,3.58,7.56,3.56h0c2.92-.02,5.28-2.41,5.24-5.35l-.07-5.9c-.93,.4-1.9,.66-2.86,.8-4.83,.72-9.62-1.5-12.5-5.44l-8.79-12.07c-2.09-2.87-6.21-3.31-8.86-.94l-14.01,12.52c-2.37,2.12-5.42,3.35-8.6,3.42-30.63,.72-51.5-6.4-51.5-6.4-1.68,2.37-2.46,5.13-2.73,7.78-.57,5.51,4.49,9.91,9.85,8.54Z"/>
        </g>
        <path class="cls-11" d="M2256.14,1117.64l11.5,310.65-4.94,94.94c-.52,10.04,2.25,19.97,7.9,28.29h0v59.08c0,5.72,1.02,11.39,3,16.75l15.73,47.62s30.44,9.26,55.92-5.96l4.6-36.85c1.52-10.52-.47-21.25-5.67-30.53l-8.86-15.81s8.6-91.98,5.29-144.92l8.7-19.95c1.9-4.35,2.88-9.04,2.88-13.79v-16.85l32.63-104.56,36.2,124.98,4.75,177.14c.12,4.56,1.04,9.06,2.7,13.31l14.54,37.12s-7.18,18.85-5.39,36.36c0,0,46.68,8.53,77.21-2.69l-3.14-25.59,3.13-8.78c5.35-15.03,3.02-31.73-6.26-44.71l-5.4-7.56,5.95-169.22s4.51-221.18-25.24-319.5l-227.73,21.02Z"/>
        <path class="cls-17" d="M2325.59,727.71l-14.6,18.58-82.34,25.94c-6.67,2.1-11.55,7.85-12.53,14.77l-18.5,129.95c-1.21,8.48-1.71,17.04-1.51,25.6l.96,40.71s-3.74,34.33,28.44,36.55l31.05,10.62-31.8,173.66s67.04,26.35,128.39,31.18c11.12,.88,21.59-5.29,26.12-15.49,9.92-22.32,26.33-64.93,30.61-110.72l47.66-4.28s19.28,98.99,34.78,121.45l7.21-3.99c7.61-4.21,11.77-12.73,10.4-21.32-5.62-35.3-21.66-128.84-44.48-201.65l13.31-18.72,36.09-3.9s16.01-23.45,2.23-40.94l-24.36-104.6s4.64-28.76-10.48-35.91c-16.11-7.62-64.69-29.95-64.69-29.95l-10.56-20.14-74.65-19.67c-2.5-.66-5.16,.23-6.76,2.27Z"/>
        <path class="cls-12" d="M2406.84,951.81c8.42,35.83,10.93,72.81,7.49,109.45l-4.46,47.8,18.23,.54c3.39,.1,6.77-.19,10.09-.87l19.34-3.95-18.39-88.64c-2.89-14.6-4.17-29.45-4.02-44.32v-.05c.02-1.84,.05-3.69,.12-5.53,2.29-66.31-5.78-130.88-11.76-168.25t0-.02c-3.27-20.43-5.92-32.73-5.92-32.73l-17.75-33.85c-28.78-13.58-62.56-11.89-62.56-11.89l-7.56,9.53c34.06,54.81,61.98,158.2,77.16,222.78Z"/>
        <path class="cls-16" d="M2342.17,695.74v34.63s18.12,23.51,44.88,41.51c2.29,1.54,4.24,3.54,5.71,5.88h0c2.88,4.57,4.85,9.66,5.79,14.99l1.99,11.29,.98-10.5c.64-6.81,2.54-13.45,5.62-19.57l1.35-2.69-6.9-13.81v-34.52l-59.43-27.21Z"/>
        <g>
          <g>
            <g>
              <polygon class="cls-16" points="2341.46 690.93 2341.46 726.93 2404.63 769.02 2404.63 690.93 2341.46 690.93"/>
              <rect class="cls-16" x="2340.72" y="587.01" width="95.7" height="154.15" rx="47.85" ry="47.85"/>
              <path class="cls-8" d="M2390.41,738.38c4.74,2.53,9.8,3.99,14.22,4.79v-4.76c-4.3,1.18-8.99,1.08-14.22-.02Z"/>
            </g>
            <g>
              <g>
                <path class="cls-13" d="M2420.35,658.13c0,2.38-1.93,4.31-4.31,4.31s-4.31-1.93-4.31-4.31,1.93-4.31,4.31-4.31,4.31,1.93,4.31,4.31Z"/>
                <path class="cls-13" d="M2426.64,653.97c-1.15-1.13-2.56-1.99-4.07-2.58-1.51-.6-3.15-.92-4.79-.88-.2,0-.41,0-.61,.03l-.61,.06-.61,.06c-.2,.03-.4,.08-.6,.13-.4,.1-.8,.18-1.19,.29-.38,.14-.76,.28-1.14,.43l-.57,.22-.54,.28-1.07,.57c-.68,.43-1.33,.92-1.98,1.39,.71-.38,1.38-.81,2.1-1.17l1.09-.5,.54-.25,.57-.18c.38-.12,.75-.24,1.13-.37,.38-.09,.77-.16,1.16-.24,.19-.03,.38-.09,.58-.12l.59-.05c.39-.02,.78-.11,1.18-.07,1.58-.06,3.15,.24,4.65,.74,.38,.12,.74,.28,1.11,.42,.36,.17,.72,.33,1.07,.52,.71,.36,1.38,.79,2.02,1.28Z"/>
              </g>
              <g>
                <path class="cls-13" d="M2375.15,658.13c0,2.38-1.93,4.31-4.31,4.31s-4.31-1.93-4.31-4.31,1.93-4.31,4.31-4.31,4.31,1.93,4.31,4.31Z"/>
                <path class="cls-13" d="M2381.43,653.97c-1.15-1.13-2.56-1.99-4.07-2.58-1.51-.6-3.15-.92-4.79-.88-.2,0-.41,0-.61,.03l-.61,.06-.61,.06c-.2,.03-.4,.08-.6,.13-.4,.1-.8,.18-1.19,.29-.38,.14-.76,.28-1.14,.43l-.57,.22-.54,.28-1.07,.57c-.68,.43-1.33,.92-1.98,1.39,.71-.38,1.38-.81,2.1-1.17l1.09-.5,.54-.25,.57-.18c.38-.12,.75-.24,1.13-.37,.38-.09,.77-.16,1.16-.24,.19-.03,.38-.09,.58-.12l.59-.05c.39-.02,.78-.11,1.18-.07,1.58-.06,3.15,.24,4.65,.74,.38,.12,.74,.28,1.11,.42,.36,.17,.72,.33,1.07,.52,.71,.36,1.38,.79,2.02,1.28Z"/>
              </g>
              <path class="cls-13" d="M2400.28,671.99c.16,1.86,.37,3.71,.59,5.56,.21,1.85,.47,3.7,.72,5.54,.14,.93,.29,1.82,.21,2.73-.05,.9-.26,1.8-.61,2.63-.36,.82-.9,1.59-1.66,2.08-.78,.51-1.57,1-2.35,1.52,.83-.42,1.65-.87,2.47-1.31,.84-.48,1.46-1.28,1.89-2.13,.43-.86,.66-1.81,.73-2.76,.1-.96-.06-1.92-.19-2.83-.27-1.84-.53-3.69-.84-5.53-.3-1.84-.61-3.68-.97-5.51Z"/>
              <path class="cls-6" d="M2384.72,698.5c.23,.93,.62,1.83,1.14,2.68,1.03,1.68,2.73,3.13,4.82,3.83,1.03,.35,2.15,.48,3.22,.42,.53-.02,1.05-.13,1.56-.23,.5-.15,.99-.29,1.45-.51,1.84-.84,3.3-2.14,4.17-3.94-1.23,0-2.32,.05-3.32,.07-.62,.02-1.2,.03-1.76,0-.36,.01-.71-.06-1.04-.06-.33-.06-.65-.07-.96-.13-.62-.11-1.19-.23-1.75-.42-1.12-.37-2.25-.94-3.51-1.73-.65-.41-1.31-.86-2.01-1.36-.67-.47-1.37-.98-2.16-1.53-.18,1-.07,1.96,.14,2.9Z"/>
              <path class="cls-5" d="M2386.74,697.13c.15,.55,.38,1.08,.66,1.59,.79,1.42,2.19,2.66,3.95,3.24,1.75,.59,3.71,.41,5.18-.35,.44-.23,.86-.49,1.24-.79-.62,.02-1.2,.03-1.76,0-.36,.01-.71-.06-1.04-.06-.33-.06-.65-.07-.96-.13-.62-.11-1.19-.23-1.75-.42-1.12-.37-2.25-.94-3.51-1.73-.65-.41-1.31-.86-2.01-1.36Z"/>
              <path class="cls-13" d="M2426.64,641.97c-.24-.94-.76-1.74-1.35-2.46-.3-.35-.63-.68-.98-.98-.18-.15-.36-.29-.55-.42-.19-.13-.37-.29-.58-.4-1.59-.98-3.51-1.53-5.43-1.47-.48-.03-.95,.07-1.43,.13l-.71,.11c-.23,.05-.46,.13-.68,.2-.45,.14-.9,.3-1.33,.47-.42,.21-.82,.45-1.21,.69-.2,.11-.39,.24-.58,.37-.18,.15-.36,.29-.52,.45-.34,.3-.67,.62-.98,.95-.3,.33-.56,.73-.8,1.12-.24,.39-.46,.81-.64,1.24,1,.02,1.83-.11,2.63-.19,.41-.03,.8-.06,1.18-.11,.19-.02,.37-.05,.55-.08,.19-.01,.38-.01,.55-.03,.36-.03,.71-.06,1.05-.12,.35-.02,.69-.02,1.02-.06,.17,0,.33-.05,.49-.05,.17,0,.33,0,.49,0l.49-.03,.24-.02h.24c1.29-.04,2.58,.05,4,.15,1.44,.11,2.93,.32,4.82,.55Z"/>
              <path class="cls-13" d="M2381.43,641.97c-.24-.94-.76-1.74-1.35-2.46-.3-.35-.63-.68-.98-.98-.18-.15-.36-.29-.55-.42-.19-.13-.37-.29-.58-.4-1.59-.98-3.51-1.53-5.43-1.47-.48-.03-.95,.07-1.43,.13l-.71,.11c-.23,.05-.46,.13-.68,.2-.45,.14-.9,.3-1.33,.47-.42,.21-.82,.45-1.21,.69-.2,.11-.39,.24-.58,.37-.18,.15-.36,.29-.52,.45-.34,.3-.67,.62-.98,.95-.3,.33-.56,.73-.8,1.12-.24,.39-.46,.81-.64,1.24,1,.02,1.83-.11,2.63-.19,.41-.03,.8-.06,1.18-.11,.19-.02,.37-.05,.55-.08,.19-.01,.38-.01,.55-.03,.36-.03,.71-.06,1.05-.12,.35-.02,.69-.02,1.02-.06,.17,0,.33-.05,.49-.05,.17,0,.33,0,.49,0l.49-.03,.24-.02h.24c1.29-.04,2.58,.05,4,.15,1.44,.11,2.93,.32,4.82,.55Z"/>
            </g>
          </g>
          <path class="cls-11" d="M2351.04,635.81l.25-13.33c37.28-17.75,71.49-9.88,71.49-9.88,0,0,7.18,10.26,8.31,27.18,0,0-6.99-1.52-7.3-7.68,0,0-3.33,1.07-2.58,5.79,0,0-1.26-2.01-.31-6.79l-2.06,1.25c-1.72,1.05-2.8,2.91-2.8,4.93-.02,12.84,19.1,16.13,27.27,11.53,18.65-.68,26.32-13.96,17.72-28.5,10.32-19.33-14.15-26.43-14.15-26.43,14.44-18.08,1.16-41.44,1.16-41.44,.7,7.34-.19,13.85-.19,13.85,2.25-18.23-15.75-30.68-15.75-30.68-2.88,52.52-74.35,29-74.35,29-32.59,40.15-56.66,36.35-56.66,36.35,3,3.3,8.05,4.3,8.05,4.3l-3.52,.87c-19.57,39.37-1.55,64.88-1.55,64.88,0-4.89,1.05-12.59,1.05-12.59-.01,.34-.02,.68-.02,1.01-.11,12.29,6.62,23.56,17.2,29.8,20.35,12.01,19.16,28.43,19.16,28.43l.45-63.67,4.84-6.13c2.71-3.43,4.22-7.66,4.3-12.03Z"/>
          <g>
            <rect class="cls-16" x="2327.15" y="657.73" width="20.29" height="33.69" rx="8.9" ry="8.9"/>
            <path class="cls-8" d="M2340.03,663.01c-.86-.1-1.74-.03-2.6,.16-.86,.21-1.68,.57-2.44,1.06-1.5,.97-2.69,2.46-3.29,4.18-.29,.86-.48,1.76-.47,2.66,0,.88,.03,1.72,.07,2.58,.07,1.71,.18,3.42,.39,5.13,.21-1.71,.32-3.42,.39-5.13,.05-.85,.04-1.72,.1-2.55,.02-.81,.2-1.6,.47-2.36,.25-.76,.64-1.48,1.11-2.13,.47-.66,1.03-1.25,1.68-1.75,.65-.49,1.36-.92,2.13-1.23,.77-.31,1.6-.5,2.45-.63Z"/>
            <path class="cls-8" d="M2336.73,681.24c.48-.24,.87-.6,1.2-1,.33-.41,.58-.87,.76-1.36,.18-.49,.29-1.01,.3-1.53,.01-.52-.05-1.04-.26-1.54-.21,.49-.36,.95-.52,1.4l-.47,1.32-.5,1.31c-.17,.45-.36,.89-.52,1.4Z"/>
          </g>
          <path class="cls-12" d="M2431.1,639.78c1.86,.49,3.89,.44,5.72-.23,.9-.37,1.77-.85,2.5-1.51,.76-.62,1.37-1.41,1.9-2.23,1.01-1.68,1.56-3.64,1.59-5.6,.04-1.96-.36-3.92-1.13-5.72-.78-1.8-1.93-3.42-3.29-4.81-1.37-1.38-2.92-2.59-4.63-3.52-3.4-1.89-7.17-2.99-10.97-3.56,.94,.23,1.88,.41,2.81,.66,.92,.28,1.86,.5,2.75,.86l1.35,.48,1.32,.57c.22,.1,.44,.18,.65,.29l.63,.34c.42,.23,.86,.43,1.26,.69,1.65,.97,3.17,2.14,4.49,3.51,1.32,1.37,2.42,2.95,3.16,4.69,.76,1.73,1.17,3.62,1.14,5.51,0,1.89-.55,3.76-1.47,5.41-.49,.8-1.06,1.57-1.78,2.19-.69,.65-1.52,1.14-2.38,1.52-1.76,.73-3.75,.84-5.63,.46Z"/>
          <path class="cls-12" d="M2443.46,636.12c-.44,1.21-1.07,2.34-1.85,3.35-.77,1.02-1.67,1.93-2.66,2.73-1.97,1.6-4.27,2.84-6.75,3.36-1.23,.27-2.51,.36-3.74,.17-1.24-.18-2.43-.66-3.44-1.4-1.02-.74-1.83-1.75-2.43-2.87-.62-1.12-1.03-2.34-1.37-3.58,.23,1.27,.6,2.52,1.15,3.69,.57,1.17,1.37,2.25,2.41,3.06,1.03,.83,2.31,1.33,3.61,1.55,1.3,.21,2.64,.14,3.92-.13,2.56-.59,4.92-1.86,6.89-3.56,1.95-1.7,3.59-3.87,4.26-6.38Z"/>
          <path class="cls-12" d="M2461.04,620.3c-1.7-2.68-3.89-5.03-6.28-7.13-2.4-2.1-5.07-3.88-7.9-5.34-2.85-1.43-5.87-2.51-8.98-3.21-.78-.15-1.56-.33-2.35-.43l-1.18-.18-1.19-.12c-1.58-.15-3.17-.18-4.76-.15,3.17,.11,6.32,.51,9.38,1.25,3.06,.76,6.04,1.83,8.84,3.28,1.41,.71,2.78,1.49,4.09,2.36,1.32,.87,2.57,1.82,3.79,2.82,1.22,1,2.38,2.08,3.47,3.22,1.1,1.13,2.14,2.33,3.06,3.62Z"/>
          <path class="cls-12" d="M2458.53,611.08c-.35-.97-.96-1.83-1.65-2.6-.33-.4-.75-.71-1.13-1.07-.42-.31-.83-.63-1.26-.91-1.76-1.12-3.76-1.81-5.78-2.21l-.76-.15c-.25-.04-.51-.06-.77-.09l-1.54-.17c-.51-.04-1.03-.03-1.55-.05-.52,0-1.03-.04-1.55,0-1.03,.08-2.06,.12-3.08,.23-1.02,.16-2.03,.3-3.04,.48,1.03-.06,2.05-.15,3.06-.23,1.02-.06,2.04-.06,3.06-.09,1.02,.03,2.04,.07,3.05,.13l1.51,.19c.25,.03,.51,.06,.75,.1l.74,.16c.49,.11,1,.18,1.48,.33l1.45,.44c.47,.18,.93,.39,1.4,.58,.46,.21,.89,.47,1.35,.69,.44,.25,.85,.55,1.27,.83,.38,.33,.8,.62,1.15,.99,.74,.69,1.38,1.5,1.83,2.42Z"/>
          <path class="cls-12" d="M2446.89,593.87c-2.03-.55-4.14-.77-6.25-.79-2.11-.02-4.22,.25-6.28,.72-1.04,.22-2.03,.59-3.04,.91l-1.46,.62c-.24,.11-.49,.19-.72,.32l-.69,.38c-.46,.26-.93,.49-1.37,.79l-1.3,.9c-.44,.29-.83,.64-1.23,.99-.4,.34-.79,.69-1.18,1.04,.43-.31,.85-.62,1.26-.93,.42-.31,.83-.64,1.29-.89l1.33-.83c.44-.27,.93-.47,1.39-.71,.92-.5,1.9-.84,2.86-1.24,.99-.3,1.97-.65,2.99-.85,2.02-.5,4.09-.76,6.17-.82h1.56c.52,0,1.04,.01,1.56,.05,1.04,.05,2.08,.18,3.12,.35Z"/>
          <path class="cls-12" d="M2447.85,566.28c-.34,2.28-1.31,4.42-2.63,6.28-1.31,1.87-3.05,3.41-4.98,4.61-1.94,1.2-4.06,2.08-6.27,2.67-2.2,.59-4.47,.94-6.75,1.1-4.57,.34-9.16-.02-13.7-.66l-1.7-.24-1.69-.31-1.69-.31c-.56-.1-1.12-.24-1.69-.36-1.12-.25-2.25-.45-3.37-.74l-3.35-.82c4.41,1.32,8.89,2.42,13.44,3.15l1.71,.27c.57,.08,1.15,.13,1.72,.2l1.72,.19,1.73,.11c2.3,.16,4.62,.14,6.92,0,2.31-.18,4.6-.55,6.84-1.17,2.23-.62,4.41-1.51,6.35-2.78,1.94-1.27,3.68-2.87,4.97-4.8,.64-.96,1.19-1.99,1.6-3.07,.41-1.08,.73-2.2,.83-3.35Z"/>
          <path class="cls-12" d="M2340.72,603.14c-2.4,1.29-4.96,2.25-7.57,2.97-.66,.16-1.31,.35-1.97,.49-.66,.13-1.33,.28-1.99,.4l-2.01,.28c-.67,.09-1.35,.11-2.02,.16-2.7,.18-5.42,.11-8.1-.32-1.35-.13-2.67-.48-3.99-.77-.67-.11-1.31-.35-1.96-.54l-1.96-.59,1.92,.71c.64,.22,1.27,.5,1.94,.65,1.32,.34,2.64,.73,4,.91,2.69,.51,5.46,.57,8.19,.44,2.74-.17,5.45-.67,8.07-1.47,.66-.18,1.3-.44,1.95-.65,.64-.23,1.27-.5,1.9-.76,1.24-.57,2.47-1.17,3.61-1.92Z"/>
          <path class="cls-12" d="M2350.88,589.91c-.3,1.42-.66,2.82-1.09,4.21-.41,1.39-.88,2.75-1.42,4.09-1.07,2.67-2.39,5.27-4.16,7.53-1.74,2.26-4.05,4.14-6.79,4.97-2.75,.82-5.74,.44-8.47-.48l1.02,.38c.34,.13,.68,.25,1.04,.33l1.06,.27,1.08,.16c1.45,.15,2.94,.1,4.37-.29,2.87-.78,5.28-2.74,7.08-5.03,1.78-2.34,3.12-4.97,4.13-7.7,1-2.74,1.75-5.56,2.15-8.44Z"/>
          <path class="cls-12" d="M2305.1,659.41c.07-1.45,.18-2.91,.32-4.35,.13-1.45,.3-2.89,.5-4.33,.4-2.88,.9-5.74,1.6-8.56,.66-2.82,1.53-5.6,2.64-8.28,1.11-2.68,2.5-5.25,4.27-7.56-.97,1.09-1.82,2.28-2.6,3.52-.77,1.25-1.42,2.56-2.03,3.89-1.19,2.68-2.06,5.48-2.77,8.31-.67,2.85-1.17,5.73-1.5,8.63-.31,2.9-.5,5.82-.44,8.73Z"/>
        </g>
        <g class="cls-1">
          <path class="cls-3" d="M2256.56,1030.43l-3.4,18.59s53.17,6.01,104.12-.59c0,0-17,.99-25.26,.12,0,0-14.34-1.28-22.83-3.5l-52.62-14.62Z"/>
        </g>
        <g class="cls-1">
          <path class="cls-3" d="M2277.88,965.85s2.75-5.25-1.39-6.45l4.24-9.27s1.39-3.19-.68-6.69l-2.65-3.63s9.9-30.68,8.81-65.57l1.96,90.28c-1.89-.34-3.99-1.53-10.29,1.34Z"/>
        </g>
        <g class="cls-1">
          <path class="cls-12" d="M2457.53,1104.78l-17.21-82.99s5.41,42.69,5.49,85.38l11.71-2.39Z"/>
        </g>
        <g class="cls-1">
          <path class="cls-3" d="M2400.37,1025.15s8.15,36.23,12.65-.4c0,0-4.71-1.86-12.65,.4Z"/>
        </g>
        <g class="cls-1">
          <path class="cls-3" d="M2254.45,985.67l2.72-7.34c1.31-3.54,4.11-6.33,7.65-7.64l13.06-4.84s-13.17,6.87-23.43,19.82Z"/>
        </g>
        <g class="cls-1">
          <path class="cls-3" d="M2276.49,959.39s-21.41-6.43-44.72-4.31l16.78-2.39c5.06-.72,10.23-.13,15,1.71l12.94,5Z"/>
        </g>
        <g class="cls-1">
          <path class="cls-12" d="M2414.13,788.49s-1.48-3.54-5.63-6.96c0,0-2.75,5.82-4.21,10.24,0,0,3.15-5.56,9.84-3.28Z"/>
        </g>
        <g class="cls-1">
          <path class="cls-12" d="M2394.88,789.78s-3.73-6.7-7.51-9c0,0-2.78,1.59-3.85,6.95l-.8,4.05s6.35-7.92,12.16-2Z"/>
        </g>
        <g class="cls-1">
          <path class="cls-12" d="M2423.48,797.97l11.65,173.8c.02-1.84,.05-3.69,.12-5.53,2.29-66.31-5.78-130.88-11.76-168.25t0-.02Z"/>
        </g>
        <g class="cls-1">
          <polygon class="cls-3" points="2482.71 932.13 2489.6 859.08 2489.6 912.68 2482.71 932.13"/>
        </g>
        <path class="cls-3" d="M2311.49,748.58c.97,5.21,1.91,10.42,2.82,15.64l2.7,15.64c.3,1.23,1.03,2.36,2.04,3.12,.99,.8,2.32,1.05,3.57,1.51l7.52,2.55c5.01,1.71,10.01,3.45,15.01,5.22-5.05-1.59-10.1-3.21-15.13-4.86l-7.54-2.49-1.89-.62c-.65-.2-1.27-.53-1.82-.94-1.1-.83-1.91-2.04-2.24-3.39l-2.59-15.69c-.84-5.23-1.66-10.46-2.44-15.7Z"/>
        <path class="cls-3" d="M2324.36,805.5l-1.44-2.47c-.44-.84-1-1.62-1.3-2.57-.61-1.88-.17-4.06,1.11-5.58,.66-.77,1.47-1.28,2.19-1.89,.75-.59,1.48-1.19,2.24-1.77,1.5-1.17,3.01-2.33,4.55-3.44-1.41,1.28-2.86,2.51-4.31,3.74-.72,.62-1.46,1.22-2.19,1.82-.72,.62-1.52,1.17-2.09,1.86-1.21,1.38-1.62,3.38-1.13,5.15,.23,.89,.75,1.7,1.15,2.57l1.22,2.58Z"/>
        <path class="cls-3" d="M2394.87,970c-2.47-7.05-4.83-14.13-7.4-21.13l-1.9-5.27-1.97-5.24c-1.34-3.48-2.56-7.01-3.92-10.49-5.27-13.97-10.92-27.79-16.93-41.46-6.02-13.66-12.21-27.25-18.63-40.72l-4.85-10.09c-1.61-3.37-3.25-6.72-4.89-10.07-3.3-6.7-6.65-13.37-10.04-20.02l.04-.02c3.54,6.57,6.96,13.21,10.32,19.88,3.37,6.66,6.67,13.36,9.86,20.11,6.42,13.49,12.6,27.08,18.44,40.82,2.98,6.85,5.78,13.77,8.67,20.65l4.25,10.36,4.11,10.42c1.37,3.47,2.67,6.97,3.97,10.47l1.93,5.26,1.85,5.28c1.22,3.53,2.51,7.03,3.66,10.59l3.47,10.65-.05,.02Z"/>
        <path class="cls-3" d="M2277.4,939.8c1.45-4.78,2.62-9.64,3.65-14.52,1.05-4.88,1.94-9.79,2.67-14.73,1.46-9.87,2.29-19.84,2.31-29.81,.07-4.99-.12-9.97-.5-14.95-.35-4.97-1.02-9.92-1.88-14.83-1.76-9.82-4.62-19.44-8.68-28.57,2.07,4.54,3.95,9.18,5.44,13.95,1.44,4.78,2.71,9.63,3.57,14.55,.9,4.92,1.59,9.87,1.97,14.86,.41,4.98,.63,9.98,.58,14.98-.08,10-.97,19.98-2.48,29.86-1.52,9.87-3.63,19.67-6.64,29.2Z"/>
        <path class="cls-3" d="M2270.01,812.65c-1.83-2.32-3.74-4.57-5.69-6.78-1.96-2.21-3.96-4.37-6.05-6.46-2.05-2.12-4.22-4.12-6.42-6.08-1.11-.97-2.23-1.93-3.39-2.84-1.12-.96-2.33-1.81-3.5-2.71,2.47,1.62,4.88,3.35,7.14,5.27,2.26,1.91,4.44,3.92,6.53,6.02,2.06,2.12,4.08,4.29,5.98,6.56,1.9,2.26,3.72,4.6,5.4,7.03Z"/>
        <path class="cls-11" d="M2400.55,804.03c-.32-1.09-.68-2.16-1.07-3.22-.37-1.07-.76-2.13-1.19-3.18-.85-2.09-1.72-4.18-2.79-6.17-1.03-2-2.17-3.95-3.51-5.77-1.35-1.8-2.85-3.5-4.62-4.92,1.88,1.27,3.51,2.9,4.93,4.69,1.41,1.79,2.57,3.77,3.64,5.77,1.04,2.03,1.93,4.12,2.7,6.26,.77,2.14,1.42,4.32,1.9,6.54Z"/>
        <path class="cls-11" d="M2371.84,809.33c-2.7-4.68-5.33-9.4-7.91-14.14-2.58-4.74-5.09-9.53-7.59-14.32-2.47-4.81-4.91-9.62-7.28-14.48-2.38-4.85-4.67-9.74-6.9-14.66,2.4,4.84,4.8,9.67,7.25,14.49,2.44,4.82,4.88,9.63,7.38,14.42,2.46,4.81,4.97,9.59,7.48,14.37l7.57,14.32Z"/>
        <path class="cls-11" d="M2400.55,804.03c.41-1.95,.92-3.88,1.45-5.8,.54-1.92,1.15-3.82,1.77-5.71,.67-1.88,1.34-3.76,2.12-5.6,.78-1.84,1.62-3.65,2.61-5.38-1.6,3.65-2.99,7.37-4.26,11.14-1.31,3.76-2.47,7.56-3.7,11.35Z"/>
        <path class="cls-11" d="M2400.57,804.03l5.04,36.49c1.67,12.16,3.33,24.33,4.91,36.51l4.8,36.52c1.59,12.18,3.3,24.33,4.94,36.5l9.9,73c1.81,12.15,2.48,24.49,1.93,36.77l-1.43,36.81h-.05s1.15-36.82,1.15-36.82c.45-12.27-.32-24.55-2.08-36.69l-9.68-73.03c-1.62-12.17-3.18-24.35-4.85-36.51l-4.99-36.5c-1.68-12.16-3.28-24.34-4.88-36.51l-4.75-36.53h.05Z"/>
        <path class="cls-11" d="M2406.16,797.97l5.17,37.25c1.71,12.42,3.42,24.83,5.04,37.26l4.93,37.28c1.62,12.43,3.38,24.84,5.06,37.26l10.16,74.52c.87,6.2,1.66,12.44,2,18.71,.36,6.26,.41,12.55,.16,18.81l-1.46,37.57h-.05s1.17-37.59,1.17-37.59c.42-12.52-.47-25.05-2.31-37.44l-9.94-74.54c-1.67-12.42-3.26-24.86-4.99-37.27l-5.12-37.25c-1.73-12.41-3.36-24.84-5.01-37.27l-4.88-37.28h.05Z"/>
        <path class="cls-11" d="M2387.38,780.78c-1.15,.82-2.01,1.96-2.54,3.24-.57,1.27-.9,2.63-1.18,3.99-.55,2.74-.95,5.53-1.73,8.24-.8,2.7-2,5.33-3.73,7.58-.87,1.12-1.86,2.13-2.92,3.06-1.07,.92-2.25,1.7-3.44,2.44,2.31-1.58,4.4-3.49,6.05-5.73,1.63-2.25,2.8-4.81,3.56-7.48,.81-2.67,1.21-5.44,1.84-8.19,.32-1.37,.7-2.74,1.33-4.02,.62-1.28,1.57-2.39,2.76-3.14Z"/>
        <path class="cls-11" d="M2408.51,781.54c1.75,1.27,3.21,2.91,4.46,4.69,1.24,1.78,2.24,3.73,3.03,5.76,.33,1.03,.72,2.05,.94,3.12,.12,.53,.26,1.05,.37,1.59l.24,1.61,.11,.8,.05,.81,.1,1.62c.01,1.08-.05,2.16-.08,3.24-.06-1.08-.07-2.16-.17-3.23-.14-1.07-.17-2.14-.41-3.19-.32-2.12-.91-4.19-1.64-6.2-.74-2.01-1.72-3.92-2.88-5.72-1.17-1.79-2.51-3.49-4.14-4.9Z"/>
        <path class="cls-11" d="M2418.96,772.22c.53,2.68,.86,5.41,1.05,8.14,.2,2.73,.22,5.47,.16,8.21-.09,2.74-.31,5.47-.72,8.18-.35,2.72-1,5.39-1.72,8.02,.25-1.35,.58-2.67,.76-4.03l.33-2.02,.25-2.03c.32-2.71,.54-5.42,.6-8.15,.11-2.72,.08-5.45-.04-8.17-.12-2.72-.32-5.45-.67-8.16Z"/>
        <path class="cls-3" d="M2276.49,959.39l2.89-6.51c.46-1.09,1.06-2.14,1.33-3.27,.29-1.13,.32-2.32,.11-3.46-.21-1.14-.66-2.23-1.31-3.19-.68-.95-1.42-1.9-2.12-2.84l-4.28-5.69-8.47-11.44c-2.81-3.82-5.6-7.66-8.37-11.52,2.91,3.75,5.81,7.51,8.67,11.29l8.57,11.37,4.24,5.72c.71,.96,1.42,1.89,2.12,2.87,.68,1.01,1.13,2.17,1.33,3.36,.19,1.2,.13,2.43-.19,3.6-.31,1.18-.93,2.21-1.41,3.29l-3.11,6.4Z"/>
        <path class="cls-3" d="M2317.25,976.75c-3.27-1.29-6.54-2.6-9.79-3.94l-9.73-4.06-4.85-2.08-2.42-1.04c-.82-.34-1.6-.72-2.43-.96-1.66-.5-3.43-.64-5.15-.39-1.74,.2-3.35,.96-5,1.57,1.61-.69,3.19-1.53,4.96-1.81,1.75-.31,3.57-.21,5.29,.26,.87,.23,1.69,.59,2.49,.93l2.43,1.02,4.86,2.04,9.69,4.17c3.22,1.4,6.44,2.84,9.64,4.29Z"/>
        <path class="cls-3" d="M2357.27,975.01c-2.24-1.27-4.34-2.85-6.8-3.55-2.45-.73-5.06-.75-7.54-.13l-15.1,3.34c-10.07,2.21-20.15,4.36-30.25,6.43,10.03-2.37,20.08-4.65,30.15-6.89l15.1-3.32c2.53-.63,5.25-.55,7.73,.27,1.24,.4,2.42,.98,3.49,1.71l3.22,2.14Z"/>
        <path class="cls-3" d="M2399.03,969.44c-3.47,.55-6.94,1.08-10.41,1.58l-10.43,1.45-10.45,1.33c-3.48,.43-6.97,.83-10.46,1.2,3.47-.56,6.94-1.08,10.41-1.58l10.43-1.45,10.45-1.33c3.48-.43,6.97-.83,10.46-1.2Z"/>
        <path class="cls-3" d="M2222.51,956.43c5.06-1.17,10.25-1.68,15.43-1.91,5.19-.2,10.39-.03,15.56,.45,1.3,.09,2.58,.28,3.87,.44,1.29,.17,2.58,.3,3.86,.54l3.84,.64,3.81,.8,1.9,.41,1.88,.49,3.77,.98c.63,.17,1.27,.48,1.7,1,.44,.51,.65,1.18,.68,1.84,.05,1.32-.37,2.59-.94,3.75,.53-1.17,.91-2.46,.82-3.74-.05-.63-.27-1.26-.69-1.73-.42-.47-1.01-.74-1.63-.89l-3.78-.9-1.89-.45-1.91-.37c-5.06-1.09-10.2-1.79-15.35-2.29-5.15-.52-10.33-.69-15.5-.56-2.59,.08-5.17,.2-7.75,.46-2.58,.23-5.15,.54-7.69,1.06Z"/>
        <path class="cls-3" d="M2277.88,965.85c-1.11,.65-2.2,1.34-3.27,2.06-1.08,.7-2.14,1.43-3.19,2.17-2.1,1.49-4.15,3.03-6.13,4.68-2.01,1.6-3.88,3.36-5.72,5.16-.91,.91-1.8,1.83-2.64,2.81-.89,.93-1.66,1.96-2.49,2.95,1.47-2.12,3.06-4.16,4.86-6.02,1.79-1.86,3.68-3.63,5.67-5.28,2.01-1.62,4.07-3.18,6.23-4.61,2.15-1.43,4.37-2.75,6.67-3.92Z"/>
        <path class="cls-3" d="M2353.17,975.87c-1.1,.24-2.16,.6-3.16,1.08-.99,.49-1.92,1.1-2.7,1.87-.8,.75-1.45,1.65-1.9,2.65-.51,.99-.73,2.08-.97,3.19,.04-.56,.05-1.13,.15-1.69,.13-.55,.24-1.12,.47-1.65,.39-1.08,1.07-2.06,1.91-2.86,.84-.8,1.82-1.43,2.89-1.86,1.06-.42,2.18-.7,3.32-.73Z"/>
        <path class="cls-3" d="M2404.24,1044.12c-6.22,.68-12.45,1.27-18.68,1.87l-9.34,.91-9.35,.82c-6.23,.5-12.46,1.23-18.73,1.31-6.26,.18-12.53-.02-18.77-.57-6.24-.57-12.45-1.48-18.57-2.83-6.14-1.31-12.12-3.17-18.15-4.82-6.03-1.67-12.04-3.42-18.06-5.14l-18.03-5.23v-.05s18.13,4.93,18.13,4.93c6.03,1.66,12.07,3.3,18.09,5.01,6.03,1.66,12.02,3.53,18.12,4.84,6.11,1.33,12.28,2.35,18.5,2.98,6.22,.61,12.48,.86,18.74,.71,6.26-.15,12.47-.94,18.7-1.51l9.34-.91,9.35-.81c6.23-.54,12.47-1.1,18.71-1.57v.05Z"/>
        <polygon class="cls-3" points="2482.71 932.13 2483.68 920.57 2484.72 909.02 2486.82 885.93 2489.08 862.85 2490.21 851.31 2491.42 839.78 2490.46 851.33 2489.41 862.88 2487.31 885.97 2485.05 909.05 2483.92 920.59 2482.71 932.13"/>
        <path class="cls-3" d="M2452.43,815.95c-.24-1.47-.23-3-.82-4.33-.54-1.35-1.46-2.53-2.64-3.37-1.18-.81-2.56-1.48-3.82-2.26-1.28-.76-2.56-1.53-3.81-2.34,1.35,.63,2.68,1.32,4,2.01,.67,.34,1.31,.7,1.97,1.06,.65,.36,1.32,.68,1.96,1.13,1.22,.92,2.21,2.19,2.7,3.64,.25,.72,.39,1.48,.42,2.23,.01,.75,.04,1.49,.04,2.24Z"/>
        <path class="cls-3" d="M2441.32,975.94c1.61-6.51,2.93-13.09,4.13-19.68l.87-4.95,.78-4.97,.78-4.97,.72-4.98c.51-3.31,.91-6.64,1.31-9.97l.61-4.99,.51-5c.75-6.67,1.11-13.37,1.59-20.05l.45-10.05,.21-5.02,.12-5.03,.23-10.05-.02-10.06v-5.03s-.12-5.03-.12-5.03l-.22-10.06c-.02-1.68-.09-3.35-.18-5.03l-.25-5.02-.45-10.05h.05c.42,6.69,.92,13.38,1.19,20.09l.33,10.06c.05,1.68,.12,3.35,.13,5.03v5.03s0,10.06,0,10.06l-.24,10.06-.13,5.03-.26,5.03-.56,10.05-.77,10.03c-.12,1.67-.26,3.34-.44,5.01l-.46,5.01-.46,5.01-.57,5c-.37,3.33-.75,6.67-1.22,9.99-.45,3.32-.87,6.65-1.45,9.96l-.83,4.96-.91,4.95c-1.25,6.59-2.62,13.17-4.42,19.63h-.05Z"/>
        <path class="cls-3" d="M2431.68,811.04c3.69-2.94,7.4-5.86,11.13-8.75l1.4-1.09c.45-.34,.81-.78,1.04-1.28,.49-1,.42-2.24-.15-3.19-.27-.48-.72-.85-1.12-1.29l-1.23-1.27-2.46-2.54-9.78-10.24c-3.25-3.42-6.48-6.87-9.68-10.33,3.34,3.33,6.66,6.69,9.96,10.06l9.86,10.16,2.45,2.56,1.22,1.28c.39,.43,.86,.82,1.18,1.38,.64,1.08,.7,2.48,.14,3.6-.27,.56-.68,1.06-1.18,1.43l-1.42,1.06c-3.77,2.84-7.56,5.65-11.36,8.44Z"/>
        <polygon class="cls-12" points="2384.82 1285.74 2388.59 1276.04 2392.44 1266.37 2400.12 1247.03 2407.97 1227.75 2411.89 1218.11 2415.89 1208.5 2412.12 1218.2 2408.28 1227.87 2400.59 1247.21 2392.74 1266.49 2388.82 1276.13 2384.82 1285.74"/>
        <path class="cls-12" d="M2428.07,1178.91c2.68-1.28,4.57-3.71,5.85-6.31,1.31-2.61,2.14-5.44,2.75-8.29,1.21-5.72,1.62-11.59,1.72-17.44,.13-5.85-.1-11.71-.49-17.56-.19-2.92-.44-5.84-.73-8.76-.28-2.92-.6-5.83-.99-8.74,.95,5.79,1.63,11.62,2.1,17.47,.47,5.85,.69,11.72,.61,17.6-.15,5.87-.55,11.76-1.85,17.51-.66,2.86-1.54,5.7-2.91,8.32-1.36,2.59-3.35,4.99-6.06,6.19Z"/>
        <path class="cls-12" d="M2421.7,1166.91c.09-4.5,.17-8.99,.2-13.48,.03-4.49,.07-8.99,.02-13.48,0-4.49-.05-8.99-.1-13.48l-.2-13.48c.27,4.49,.46,8.98,.58,13.48,.13,4.49,.18,8.99,.22,13.49,0,4.5-.03,8.99-.14,13.49-.1,4.5-.31,8.99-.58,13.48Z"/>
        <path class="cls-12" d="M2457.98,1223.52c-2.32,.37-4.62,.83-6.91,1.34-2.29,.5-4.57,1.06-6.84,1.65-4.53,1.2-9.01,2.58-13.42,4.19-4.43,1.54-8.74,3.4-12.96,5.42l-3.15,1.56c-1.03,.55-2.05,1.14-3.08,1.7l-1.54,.84-1.5,.92-2.99,1.86c3.87-2.66,7.86-5.17,12.09-7.23,4.21-2.1,8.53-3.96,12.96-5.54,4.43-1.57,8.93-2.96,13.49-4.09,4.56-1.12,9.18-2.04,13.84-2.62Z"/>
        <path class="cls-12" d="M2445.44,1641.11c2.16,2.7,4.88,4.9,7.79,6.71,2.93,1.79,6.1,3.18,9.42,4.07,.83,.22,1.67,.38,2.51,.57,.42,.08,.84,.2,1.26,.26l1.28,.15c.85,.09,1.7,.24,2.56,.28l2.58,.08c.43,0,.86,.04,1.29,.03l1.29-.08,2.58-.16c1.71-.17,3.42-.47,5.13-.7-1.7,.31-3.39,.68-5.1,.94l-2.59,.23-1.3,.11c-.43,.02-.87,0-1.3,0l-2.6-.03c-.87-.04-1.73-.18-2.59-.26l-1.3-.15c-.43-.05-.85-.17-1.28-.25-.85-.19-1.71-.34-2.55-.56-3.35-.94-6.57-2.35-9.49-4.23-1.47-.92-2.83-2.02-4.13-3.16-1.26-1.2-2.46-2.45-3.45-3.87Z"/>
        <path class="cls-12" d="M2503.17,1585.33c-1.89-2.49-3.67-5.07-5.42-7.66-1.71-2.62-3.36-5.28-4.97-7.96-3.21-5.37-6.19-10.89-8.94-16.51-1.39-2.81-2.61-5.69-3.9-8.54l-1.78-4.35-.88-2.18-.81-2.2c-2.28-5.83-4.01-11.86-5.6-17.91l1.34,4.49,.67,2.25,.76,2.22,1.49,4.44,1.65,4.39,.83,2.19,.9,2.16,1.81,4.32c1.3,2.84,2.55,5.7,3.96,8.49,2.69,5.64,5.61,11.17,8.77,16.56,1.58,2.7,3.21,5.36,4.89,8,1.67,2.64,3.39,5.26,5.21,7.8Z"/>
        <path class="cls-12" d="M2312.08,1593.26c-4.05-2.81-7.91-5.87-11.66-9.08-3.75-3.2-7.36-6.56-10.84-10.05-3.47-3.5-6.84-7.11-10-10.89-3.22-3.74-6.15-7.71-8.99-11.73,1.52,1.94,2.96,3.94,4.54,5.82l2.33,2.86c.79,.95,1.61,1.86,2.41,2.8,1.59,1.87,3.27,3.67,4.92,5.5,1.71,1.77,3.37,3.58,5.14,5.29,3.45,3.5,7.05,6.86,10.74,10.11,3.69,3.25,7.47,6.41,11.41,9.37Z"/>
        <path class="cls-12" d="M2315.1,1618.16c2.7-.76,5.23-2.05,7.52-3.64,2.27-1.61,4.35-3.51,5.98-5.78,.45-.53,.78-1.15,1.18-1.72l.57-.87c.17-.3,.32-.62,.48-.93,.31-.62,.64-1.24,.94-1.87l.75-1.95,.38-.98,.28-1.01,.55-2.02c.32-1.36,.51-2.75,.77-4.14-.18,1.39-.29,2.8-.53,4.19l-.49,2.06-.25,1.03-.35,1-.72,2c-.3,.64-.62,1.27-.93,1.91-.16,.32-.31,.64-.48,.95l-.57,.9c-.4,.59-.73,1.22-1.18,1.76-1.69,2.28-3.82,4.22-6.16,5.79-2.36,1.56-4.98,2.74-7.73,3.33Z"/>
        <path class="cls-12" d="M2315.79,1495.43c1.98-4.58,3.99-9.15,6.03-13.71l6.15-13.66,6.26-13.61c2.1-4.53,4.23-9.05,6.38-13.55-1.98,4.58-3.99,9.15-6.03,13.71l-6.15,13.65-6.26,13.61c-2.1,4.53-4.23,9.05-6.38,13.55Z"/>
        <polygon class="cls-3" points="2348.81 1085.89 2338.09 1084.6 2327.37 1083.24 2305.95 1080.5 2284.55 1077.59 2273.85 1076.14 2263.16 1074.61 2273.88 1075.9 2284.59 1077.26 2306.02 1080 2327.42 1082.91 2338.12 1084.36 2348.81 1085.89"/>
        <path class="cls-3" d="M2263.16,1074.61l-1.02,8.23-.51,4.12c-.17,1.37-.37,2.74-.42,4.11-.03,1.37,.16,2.74,.5,4.07,.35,1.33,.92,2.58,1.63,3.75,1.44,2.31,3.58,4.23,6.12,5.24,.62,.29,1.29,.45,1.94,.63,.67,.12,1.34,.25,2.03,.33l4.11,.53,8.23,1.06,16.45,2.13,16.44,2.21,8.22,1.1,4.11,.55c.69,.11,1.37,.15,2.05,.21,.68-.01,1.37,.01,2.04-.11,2.72-.32,5.28-1.62,7.27-3.48,.98-.95,1.86-2.01,2.55-3.2,.67-1.19,1.2-2.47,1.53-3.8,.31-1.33,.47-2.71,.66-4.08l.57-4.11,1.14-8.22-1.02,8.23-.51,4.12c-.18,1.37-.31,2.75-.61,4.11-.32,1.36-.86,2.66-1.54,3.88-.69,1.21-1.58,2.31-2.58,3.28-2.03,1.91-4.64,3.25-7.43,3.59-.69,.12-1.4,.11-2.09,.12-.7-.05-1.4-.1-2.08-.2l-4.11-.53-8.23-1.06-16.45-2.13-16.44-2.21-8.22-1.1-4.11-.55c-.68-.08-1.37-.21-2.06-.35-.67-.19-1.36-.36-1.99-.66-2.6-1.05-4.78-3.03-6.24-5.39-.71-1.2-1.29-2.48-1.64-3.83-.33-1.35-.52-2.75-.48-4.14,.06-1.4,.29-2.76,.48-4.13l.57-4.11,1.14-8.22Z"/>
        <rect class="cls-5" x="2294.94" y="872.76" width="50.21" height="6.18" transform="translate(4640.09 1751.7) rotate(180)"/>
        <path class="cls-12" d="M2610.27,902.8h-117.05c-4.13,0-8.02,1.96-10.47,5.28l-81.8,110.71c-1.71,2.31-.06,5.58,2.82,5.58h117.05c4.13,0,8.02-1.96,10.47-5.28l81.8-110.71c1.71-2.31,.06-5.58-2.82-5.58Z"/>
        <g class="cls-1">
          <path class="cls-12" d="M2400.94,1018.8l37.03-50.11,9.94-13.45s0,0,0,0l34.84-47.15c2.45-3.33,6.34-5.29,10.47-5.29h117.05c1.71,0,2.99,1.15,3.38,2.58-.58-.5-1.36-.81-2.24-.81h-117.05c-4.13,0-8.02,1.96-10.47,5.28l-36.39,49.25c-2.46,14.12-11.27,15.26-11.27,15.26l-34.14,46.21c-.69,.94-.83,2.03-.57,3-1.33-1.12-1.75-3.17-.58-4.77Z"/>
        </g>
        <g class="cls-1">
          <path class="cls-12" d="M2425.75,1024.36l21.05,.03s46.68-5.92,48.21-43.93l-22.88,6.26-46.38,37.65Z"/>
        </g>
        <path class="cls-16" d="M2400.37,1025.15l31.69-.99c5.47-.17,10.77-1.96,15.23-5.13l16.33-11.62,14.5-6.98c1.99-.96,2.61-3.66,1.02-5.21-.11-.11-.24-.21-.37-.31l9.81-4.94c2.72-1.37,2.81-5.41,.03-6.64-.15-.07-.31-.12-.47-.18l6.88-2.71c6.04-2.38,4.46-11.41-2.03-11.49-.08,0-.17,0-.26,0l2.18-1.18c2.72-1.48,3.91-4.75,2.78-7.63h0c-1.23-3.14-4.75-4.7-7.9-3.51l-25.15,9.54-21.78,6.44-10.33-1.06s15-3.06,15.4-15.55c.16-5.09-5.85-7.94-9.76-4.69l-5.99,4.98-10.16,.87c-3.2,.27-6.28,1.34-8.96,3.1l-14.03,9.18s-4.2,24.63,1.34,55.71Z"/>
        <path class="cls-8" d="M2432.53,971.56c-3.18,.21-6.37,.22-9.55,.25-3.18-.03-6.37-.04-9.55-.25,3.18-.21,6.37-.22,9.55-.25,3.18,.03,6.37,.04,9.55,.25Z"/>
        <path class="cls-8" d="M2492.73,968.95c-7.98,3.74-16.04,7.32-24.17,10.74-4.08,1.69-8.26,3.11-12.42,4.57-4.17,1.43-8.35,2.81-12.55,4.15l12.42-4.52c4.14-1.51,8.31-2.95,12.36-4.65,4.08-1.67,8.12-3.42,12.18-5.14l12.18-5.14Z"/>
        <path class="cls-8" d="M2488.12,983.16c-3.24,1.56-6.46,3.17-9.68,4.77-3.21,1.62-6.42,3.23-9.6,4.92-3.2,1.65-6.35,3.38-9.5,5.12-3.14,1.76-6.25,3.56-9.32,5.43,2.97-2.03,6.02-3.95,9.13-5.77,3.11-1.81,6.27-3.54,9.45-5.23,3.2-1.65,6.41-3.27,9.67-4.82,3.25-1.55,6.53-3.03,9.85-4.43Z"/>
        <path class="cls-8" d="M2478.76,994.91c-2.75,1.31-5.47,2.7-8.17,4.1-2.7,1.41-5.39,2.85-8.03,4.36-2.67,1.47-5.29,3.03-7.88,4.62-1.31,.78-2.59,1.6-3.87,2.42-1.3,.8-2.56,1.66-3.84,2.49,2.45-1.82,4.93-3.6,7.51-5.24,2.56-1.66,5.19-3.22,7.84-4.73,2.67-1.48,5.36-2.93,8.1-4.27,2.74-1.35,5.52-2.61,8.35-3.76Z"/>
        <path class="cls-8" d="M2442.48,1007.16c-.84,.56-1.78,.97-2.75,1.3-.97,.33-1.98,.52-3,.6-1.03,.05-2.07-.06-3.06-.36-.99-.3-1.88-.86-2.63-1.54,.87,.51,1.76,.95,2.73,1.17,.96,.2,1.94,.29,2.93,.23,.98-.06,1.96-.24,2.93-.47,.96-.24,1.92-.55,2.85-.93Z"/>
        <path class="cls-8" d="M2443.28,1015.56c-.46,.81-1.05,1.53-1.72,2.18-.67,.65-1.43,1.23-2.31,1.61-.87,.38-1.85,.58-2.81,.42-.97-.14-1.79-.68-2.47-1.29,.81,.44,1.62,.86,2.52,.91,.88,.05,1.75-.13,2.56-.5,.82-.35,1.55-.88,2.26-1.44,.7-.58,1.35-1.21,1.98-1.9Z"/>
        <path class="cls-8" d="M2436.76,990.72c-.72,.5-1.55,.84-2.41,1.07-.86,.24-1.76,.32-2.65,.27-.89-.05-1.78-.25-2.59-.64-.83-.34-1.54-.89-2.18-1.48,.76,.43,1.5,.87,2.32,1.12,.8,.28,1.64,.45,2.48,.5,1.69,.12,3.4-.22,5.03-.84Z"/>
        <path class="cls-17" d="M2565.08,899.17h-27.77c-1.18,0-2.3,.56-3,1.51l-5.54,7.49c-.55,.75-.02,1.81,.91,1.81h27.77c1.18,0,2.3-.56,3-1.51l5.54-7.49c.55-.75,.02-1.81-.91-1.81Z"/>
      </g>
    </g>
    <g id="FRONT">
      <rect class="cls-11" x="375.35" y="1759.87" width="2249.57" height="3"/>
      <g>
        <g>
          <path class="cls-9" d="M2844.57,823.01h-236.28c-4.66,0-8.99,2.35-11.53,6.26l-17.04,26.2c-.78,1.2-2.54,1.2-3.32,0l-17.04-26.2c-2.54-3.9-6.88-6.26-11.53-6.26h-5.52c-7.6,0-13.76-6.16-13.76-13.76v-296.88c0-7.6,6.16-13.76,13.76-13.76h302.26c7.6,0,13.76,6.16,13.76,13.76v296.88c0,7.6-6.16,13.76-13.76,13.76Z"/>
          <path class="cls-12" d="M2578.06,856.87h0c-.84,0-1.62-.42-2.08-1.13l-17.04-26.2c-2.46-3.78-6.61-6.03-11.11-6.03h-5.52c-7.86,0-14.26-6.4-14.26-14.26v-296.88c0-7.86,6.4-14.26,14.26-14.26h302.26c7.86,0,14.26,6.4,14.26,14.26v296.88c0,7.86-6.4,14.26-14.26,14.26h-236.28c-4.5,0-8.66,2.25-11.11,6.03l-17.04,26.2c-.46,.71-1.24,1.13-2.08,1.13Zm-35.75-357.75c-7.31,0-13.26,5.95-13.26,13.26v296.88c0,7.31,5.95,13.26,13.26,13.26h5.52c4.84,0,9.31,2.42,11.95,6.48l17.04,26.2c.28,.43,.73,.67,1.24,.67h0c.51,0,.96-.25,1.24-.67l17.04-26.2c2.64-4.06,7.11-6.48,11.95-6.48h236.28c7.31,0,13.26-5.95,13.26-13.26v-296.88c0-7.31-5.95-13.26-13.26-13.26h-302.26Z"/>
        </g>
        <g>
          <circle class="cls-5" cx="2693.44" cy="660.82" r="112.47" transform="translate(321.62 2098.09) rotate(-45)"/>
          <g>
            <g>
              <path class="cls-4" d="M2792.58,607.71l-13.77,9.45c9.32,18.24,12.92,39.57,8.89,61.21-9.71,52.12-60,86.62-112.12,76.91-52.12-9.71-86.62-60-76.91-112.12,9.71-52.12,60-86.62,112.12-76.91,27.54,5.13,50.16,21.59,63.92,43.66l13.69-9.39c-16.19-25.56-42.55-44.61-74.58-50.57-61.11-11.38-120.08,29.08-131.46,90.18-11.38,61.11,29.07,120.08,90.18,131.46,61.11,11.38,120.08-29.07,131.46-90.18,4.87-26.14,.25-51.89-11.42-73.7Z"/>
              <path class="cls-12" d="M2677.65,744.18c-45.99-8.57-76.44-52.95-67.88-98.94,8.57-45.99,52.95-76.44,98.94-67.88,23.47,4.37,44.15,18.58,56.72,38.99l-2.12,1.3c-12.2-19.81-32.27-33.61-55.06-37.85-44.64-8.31-87.73,21.24-96.04,65.89-8.31,44.65,21.24,87.73,65.89,96.04,44.65,8.31,87.73-21.24,96.04-65.89,3.24-17.42,.86-35.05-6.89-50.99l2.24-1.09c7.99,16.42,10.44,34.58,7.1,52.53-8.57,45.99-52.95,76.44-98.94,67.88Zm3.04-16.3c-37-6.89-61.5-42.6-54.61-79.6,6.89-37,42.6-61.5,79.6-54.61,19.2,3.58,35.99,15.28,46.06,32.1l-2.13,1.28c-9.7-16.21-25.88-27.49-44.38-30.93-35.65-6.64-70.06,16.97-76.7,52.62-6.64,35.65,16.96,70.06,52.62,76.7,35.65,6.64,70.06-16.97,76.7-52.62,2.43-13.05,.89-26.36-4.46-38.49l2.28-1c5.55,12.59,7.16,26.4,4.63,39.95-6.89,37-42.6,61.5-79.6,54.61Z"/>
              <path class="cls-4" d="M2743.96,641.07l-14.22,9.75c1.47,5.34,1.77,11.08,.69,16.89-3.83,20.54-23.65,34.14-44.19,30.32s-34.14-23.65-30.32-44.19c3.83-20.54,23.65-34.14,44.19-30.32,11.75,2.19,21.23,9.6,26.47,19.4l13.72-9.41c-7.69-13.28-20.91-23.27-37.16-26.29-29.53-5.5-58.03,14.06-63.53,43.58-5.5,29.53,14.05,58.03,43.58,63.53,29.53,5.5,58.03-14.05,63.53-43.58,1.92-10.33,.78-20.54-2.78-29.68Z"/>
              <path class="cls-17" d="M2718.45,658.57c-.26-2.98-1.05-5.85-2.29-8.49-3.35-7.17-9.98-12.68-18.33-14.24-13.74-2.56-27.01,6.54-29.57,20.29-2.56,13.75,6.54,27.01,20.29,29.57,13.74,2.56,27.01-6.53,29.57-20.29,.43-2.32,.53-4.61,.34-6.85Zm-26.87,10.83c-4.75-.89-7.91-5.47-7.02-10.23,.89-4.75,5.48-7.9,10.23-7.02,4.75,.89,7.9,5.48,7.02,10.23-.89,4.76-5.48,7.9-10.23,7.02Z"/>
            </g>
            <g>
              <rect class="cls-17" x="2694.99" y="619.53" width="105.59" height="8.29" transform="translate(129.13 1663.83) rotate(-34.45)"/>
              <polygon class="cls-17" points="2782.61 597.11 2797.97 563.3 2829.86 541.43 2824.32 571.17 2854.06 576.71 2822.17 598.59 2785.11 600.75 2782.61 597.11"/>
            </g>
          </g>
        </g>
      </g>
    </g>
  </g>
</svg>